<svg version="1.2" xmlns="http://www.w3.org/2000/svg" viewBox="0 0 500 500" width="500" height="500">
	<title>New Project</title>
	<style>
		.s0 { fill: #fce8e3 } 
		.s1 { fill: #4c224b } 
		.s2 { fill: #e2988f } 
		.s3 { fill: #d85d63 } 
		.s4 { fill: #ffffff } 
		.s5 { fill: #c46966 } 
	</style>
	<g id="Layer 1">
	</g>
	<g>
		<path class="s0" d="m250 498.4c-134.4 0-243.1-108.6-243.1-243.1 0-134.4 108.7-243.1 243.1-243.1 134.5 0 243.1 108.7 243.1 243.1 0 134.5-108.6 243.1-243.1 243.1z"/>
		<g>
			<path class="s1" d="m391.6 235.8c17.2-100-24-227.3-137.4-234.5-36.1-2.4-71.5 10.9-89.7 36.6-62.5 24.6-67.8 134.4-60.8 172.3 19.1 103.6-73.2 85.8-49.8 183l193.1-10.6h7.4l189.7 2.5c15.9-73.5-60.3-68.5-52.5-149.3z"/>
			<path class="s2" d="m306.9 223.3v145.3h-113.9v-145.3z"/>
			<g>
				<path class="s3" d="m459 379.6c-53.6-22.5-151.4-39.5-151.4-39.5-37.6 31.6-85.1 31.4-114.6 0 0 0-99 14.7-154.9 34.3 39.9 70.9 114.4 119.8 200.7 123.8 3.8 0.1 7.7 0.2 11.6 0.2 88.7-0.1 166.2-47.7 208.6-118.8z"/>
			</g>
			<g>
				<path class="s4" d="m350.7 205.8c-4.2 0-7.7 6.1-7.7 13.7 0 7.5 3.5 13.6 7.7 13.6 4.3 0 7.7-6.1 7.7-13.6 0-7.6-3.4-13.7-7.7-13.7zm0 21.3c-2.9 0-5.3-4.2-5.3-9.4 0-5.2 2.4-9.4 5.3-9.4 3 0 5.3 4.2 5.3 9.4 0 5.2-2.3 9.4-5.3 9.4z"/>
				<path class="s4" d="m141.1 219.5c0 7.5 3.4 13.6 7.7 13.6 4.2 0 7.6-6.1 7.6-13.6 0-7.6-3.4-13.7-7.6-13.7-4.3 0-7.7 6.1-7.7 13.7zm2.4-1.8c0-5.2 2.3-9.4 5.2-9.4 3 0 5.3 4.2 5.3 9.4 0 5.2-2.3 9.4-5.3 9.4-2.9 0-5.2-4.2-5.2-9.4z"/>
				<g>
					<path class="s2" d="m249.8 47.4c-73.4 0.1-90.1 55.1-88.6 110.4 0 39.9-0.2 69.3 3.5 79.2 3.7 9.9 29.4 69.2 85.1 69.3 55.7-0.1 81.4-59.4 85.1-69.3 3.7-9.9 3.5-39.3 3.5-79.2 1.5-55.3-15.2-110.3-88.6-110.4z"/>
				</g>
				<g>
					<path class="s5" d="m249.8 308c-21.8-0.1-41.5-8.9-58.5-26.4l2.3-2.3c16.4 16.8 35.3 25.4 56.2 25.4 20.6 0 39.2-8.3 55.4-24.6l2.3 2.3c-16.8 16.9-36.2 25.5-57.7 25.6z"/>
				</g>
				<path class="s2" d="m164.4 155.9c0 0-14.7-21.7-29.9-9-15.1 12.7-0.4 84.8 29.9 72.1 30.4-12.7 0-63.1 0-63.1z"/>
				<path class="s2" d="m335.4 155.9c0 0 14.8-21.7 29.9-9 15.2 12.7 0.5 84.8-29.9 72.1-30.3-12.7 0-63.1 0-63.1z"/>
				<path class="s5" d="m158.8 196.7l3.2-0.3 1.8 23.4-3.3 0.2z"/>
				<path class="s5" d="m336 219.8l1.9-25.8 3.3 0.2-1.9 25.8z"/>
				<path class="s5" d="m142.1 184.2c-3.5-11.5-3.6-19.6-0.1-23.9 2.5-3.2 6-3 6.1-3l-0.2 3.3 0.1-1.7-0.1 1.7c0 0-2-0.1-3.4 1.8-1.5 1.9-3.4 7.2 0.7 20.9z"/>
				<path class="s5" d="m359 184.2l-3.1-0.9c4.1-13.7 2.2-19 0.7-20.9-1.5-1.9-3.4-1.8-3.5-1.8l-0.2-3.3c0.2 0 3.7-0.2 6.2 3 3.4 4.3 3.4 12.4-0.1 23.9z"/>
				<path class="s4" d="m155.2 223q-0.8 0-1.6-0.2c-0.1 0-0.2-0.1-0.4-0.2-0.9 2.7-2.5 4.5-4.5 4.5-2.9 0-5.2-4.2-5.2-9.4 0-5.1 2.3-9.3 5.2-9.4 1.7-0.2 1.3-2.6 0-2.5-4.2 0-7.6 6.1-7.6 13.7 0 7.5 3.4 13.6 7.7 13.6 3.5 0 6.5-4.3 7.3-10.1q-0.4 0-0.9 0z"/>
				<path class="s4" d="m350.8 205.8c-1.3-0.1-1.8 2.3 0 2.5 2.9 0.1 5.2 4.3 5.2 9.4 0 5.2-2.4 9.4-5.3 9.4-1.6 0-3-1.3-4-3.4-0.3 0.2-0.5 0.5-0.8 0.6-0.7 0.5-1.3 0.8-2 1.2 1.2 4.5 3.8 7.6 6.8 7.6 4.3 0 7.7-6.1 7.7-13.7 0-7.5-3.4-13.6-7.6-13.6z"/>
				<path class="s1" d="m160.7 151.5c-0.6-38.9 28.4-59.1 28.4-59.1 26.1 45.8 98.2 61.4 163.9 38.6 0 0-6.3-110-109.1-103.6-102.8 6.5-83.2 124.1-83.2 124.1z"/>
			</g>
		</g>
	</g>
</svg>