<svg version="1.2" xmlns="http://www.w3.org/2000/svg" viewBox="0 0 500 500" width="500" height="500">
	<title>2401009_307046-P8S82N-351</title>
	<style>
		.s0 { fill: #5d6a63 } 
		.s1 { fill: #a0b2b0 } 
		.s2 { fill: #6e7c7c } 
		.s3 { fill: #444e4d } 
		.s4 { fill: #767676 } 
		.s5 { fill: #afbfbd } 
		.s6 { fill: #7eb0e4 } 
		.s7 { fill: #fffbfc } 
		.s8 { fill: #fa3a4c } 
		.s9 { mix-blend-mode: lighten;fill: #161415 } 
		.s10 { fill: #fbcf02 } 
		.s11 { fill: #f19703 } 
		.s12 { fill: #ce6a06 } 
		.s13 { fill: #e2ddd3 } 
		.s14 { fill: #bed9f8 } 
		.s15 { fill: #3ed237 } 
		.s16 { fill: #c8fb07 } 
		.s17 { fill: #8a9998 } 
	</style>
	<g id="BACKGROUND">
	</g>
	<g id="OBJECT">
		<g id="&lt;Group&gt;">
			<g id="&lt;Group&gt;">
				<g id="&lt;Group&gt;">
					<g id="&lt;Group&gt;">
						<g id="&lt;Group&gt;">
							<path id="&lt;Path&gt;" class="s0" d="m415.5 264.8q0 0.1 0 0.3 0 0.1-0.1 0.2 0 0.2 0 0.3 0 0.1-0.1 0.3 0 0.1 0 0.2-0.1 0.2-0.1 0.3 0 0.1-0.1 0.3 0 0.1-0.1 0.2 0 0.2-0.1 0.3-0.1 0.1-0.1 0.3-0.1 0.1-0.2 0.2 0 0.2-0.1 0.3-0.1 0.1-0.2 0.3-0.1 0.1-0.2 0.2-0.1 0.2-0.2 0.4-0.1 0.1-0.1 0.2-0.3 0.3-0.5 0.5-0.1 0.1-0.2 0.2-0.2 0.2-0.4 0.4-0.1 0.1-0.2 0.2-0.2 0.1-0.3 0.3-0.1 0.1-0.3 0.2-0.1 0.1-0.3 0.2-0.1 0.1-0.3 0.2-0.1 0.1-0.3 0.3-0.1 0.1-0.3 0.2-0.2 0.1-0.3 0.2-0.3 0.1-0.5 0.3l-194.3 112.9q-0.6 0.3-1.3 0.6-0.1 0.1-0.3 0.2-0.6 0.3-1.2 0.5-0.1 0.1-0.2 0.1-0.7 0.3-1.4 0.5-0.5 0.1-1 0.3-0.3 0.1-0.7 0.2-0.6 0.1-1.1 0.2-0.4 0.1-0.8 0.1-0.1 0.1-0.3 0.1-0.7 0.1-1.3 0.2-0.2 0-0.4 0-0.4 0.1-0.8 0.1-0.6 0-1.3 0.1-0.4 0-0.8 0-0.5 0-1.1 0-0.4 0-0.9 0-0.4 0-0.9-0.1-0.5 0-0.9 0-0.5-0.1-1-0.2-0.4 0-0.8-0.1-0.5-0.1-1.1-0.2-0.4 0-0.8-0.1-0.6-0.1-1.1-0.3-0.4-0.1-0.8-0.2-0.2-0.1-0.4-0.1-0.6-0.2-1.2-0.4-0.2-0.1-0.3-0.2-0.5-0.2-1-0.4-0.3-0.1-0.5-0.2-0.8-0.4-1.4-0.7l-97.2-56.2c-3.8-2.2-5.6-5.1-5.6-7.9l-0.1 17.3c0 2.9 1.9 5.8 5.7 7.9l97.1 56.2q0 0 0 0 1.3 0.8 2.8 1.3 1.1 0.5 2.3 0.8 0.3 0.1 0.6 0.2 0 0 0.1 0-0.3-0.1-0.5-0.1 0 0 0.1 0h0.1q0 0 0.1 0 0 0.1 0.1 0.1h0.2q0.1 0.1 0.2 0.1 0.1 0 0.1 0 0.2 0.1 0.3 0.1 0 0 0.1 0h0.1q0 0.1 0.1 0.1 0 0 0.1 0l0.1 0.1q0.1 0 0.2 0 0 0 0.1 0 0 0 0.1 0.1h0.2q0 0 0.1 0 0.1 0.1 0.2 0.1h0.1c1.7 0.5 3.6 0.7 5.5 0.7q1.5 0 2.9-0.1 1.4-0.2 2.7-0.6l2.6-0.7q-0.1 0.1-0.2 0.1 0.7-0.2 1.5-0.4 0.7-0.3 1.4-0.6 0 0 0 0 0.7-0.2 1.3-0.5 0.1-0.1 0.3-0.1 0.6-0.4 1.2-0.7 0 0 0 0l194.3-112.9q0.1-0.1 0.2-0.1 0.1-0.1 0.2-0.2 0.2-0.1 0.4-0.2 0.1-0.1 0.3-0.2 0.1-0.1 0.3-0.2 0.1-0.1 0.3-0.2 0.1-0.2 0.3-0.3 0.1-0.1 0.2-0.2 0.2-0.1 0.3-0.2 0.1-0.1 0.1-0.1 0.1-0.1 0.1-0.1 0.3-0.2 0.5-0.5 0 0 0.1-0.1 0.3-0.3 0.5-0.6 0 0 0 0 0.1-0.1 0.1-0.2 0.2-0.1 0.3-0.3 0.1-0.1 0.1-0.2 0.1-0.2 0.2-0.4 0.1 0 0.1-0.1 0 0 0.1-0.1 0.1-0.2 0.1-0.3 0.1-0.1 0.1-0.2 0.1-0.2 0.2-0.3 0-0.1 0-0.2 0 0 0.1-0.1 0-0.1 0-0.3 0.1-0.1 0.1-0.2 0.1-0.2 0.1-0.3 0-0.1 0-0.1 0-0.1 0-0.1 0.1-0.2 0.1-0.3 0-0.2 0-0.3 0-0.1 0-0.3 0-0.1 0.1-0.2 0 0 0-0.1v-17.4q0 0.2 0 0.4z"/>
							<g id="&lt;Group&gt;">
								<g id="&lt;Group&gt;">
									<path id="&lt;Path&gt;" class="s1" d="m405.5 255.1c5.1 2.9 5.1 7.7 0 10.6l-194.2 112.9c-5.1 3-13.4 3-18.5 0l-97.1-56.1c-5.1-3-5.1-7.7 0-10.7l194.2-112.9c5.1-2.9 13.4-2.9 18.5 0z"/>
								</g>
								<path id="&lt;Path&gt;" class="s2" d="m415.5 264.5q0 0 0 0 0-0.4 0-0.8 0 0 0 0 0-0.1-0.1-0.1 0-0.4-0.1-0.7 0 0 0-0.1 0 0 0 0-0.1-0.3-0.2-0.7 0 0 0-0.1-0.1 0-0.1 0-0.1-0.4-0.2-0.7-0.1 0-0.1 0 0 0 0-0.1-0.2-0.3-0.4-0.6 0-0.1 0-0.1-0.1 0-0.1-0.1-0.2-0.3-0.4-0.6 0 0-0.1-0.1 0 0 0 0-0.3-0.3-0.6-0.6 0-0.1 0-0.1-0.1 0-0.1-0.1-0.3-0.3-0.7-0.7 0 0 0 0 0 0 0 0-0.4-0.3-0.8-0.6-0.1-0.1-0.1-0.1-0.1 0-0.1 0-0.5-0.4-1-0.7 0 0 0 0-0.2-0.2-0.5-0.3l-97.1-56.1q-0.4-0.3-0.9-0.5 0-0.1-0.1-0.1-0.6-0.3-1.1-0.5-0.2-0.1-0.3-0.1 0 0-0.1-0.1-0.8-0.3-1.6-0.6-0.1 0-0.2 0-0.5-0.2-1-0.3-1.3-0.4-2.6-0.8 0 0 0 0 0.4 0.2 0.7 0.3 0.6 0.2 1.2 0.4 0.1 0 0.2 0.1 0.4 0.2 0.7 0.3 0.4 0.2 0.8 0.4l97.1 56.2q0.3 0.2 0.6 0.4 0.2 0.1 0.3 0.2 0.4 0.3 0.7 0.6 0 0 0.1 0 0.3 0.2 0.5 0.5 0.1 0.1 0.2 0.2 0.2 0.2 0.4 0.5 0 0.1 0.1 0.1 0.2 0.3 0.3 0.6 0 0 0.1 0.1 0.1 0.3 0.2 0.6 0.1 0.1 0.1 0.2 0.1 0.2 0.1 0.5 0 0.1 0.1 0.2 0 0.2 0 0.5 0 0.1 0 0.1 0 0.4 0 0.7-0.1 0.1-0.1 0.2 0 0.2-0.1 0.5 0 0.1-0.1 0.2-0.1 0.2-0.2 0.4 0 0.2-0.1 0.3-0.1 0.2-0.2 0.4-0.1 0.2-0.3 0.3-0.1 0.2-0.3 0.4-0.1 0.1-0.2 0.2-0.2 0.2-0.4 0.5-0.1 0-0.2 0.1-0.3 0.3-0.6 0.5-0.1 0.1-0.1 0.1-0.4 0.3-0.9 0.5l-194.2 112.9q-0.5 0.3-1 0.5 0 0.1 0 0.1-0.5 0.2-1.1 0.4 0 0 0 0-0.5 0.2-1.1 0.4 0 0 0 0-0.5 0.1-1 0.3-0.2 0-0.4 0-0.4 0.1-0.7 0.2-0.2 0-0.5 0.1-0.4 0-0.9 0.1-0.1 0-0.1 0-0.6 0.1-1.2 0.1 0 0 0 0-0.6 0-1.2 0 0 0-0.1 0-0.6 0-1.2 0 0 0 0 0-0.6 0-1.2-0.1 0 0 0 0-0.6-0.1-1.2-0.2-0.1 0-0.1 0-0.6-0.1-1.1-0.2 0 0-0.1 0-0.5-0.1-1-0.3-0.1 0-0.1 0-0.5-0.2-1-0.4-0.1 0-0.2-0.1-0.5-0.1-0.9-0.3 0 0-0.1-0.1-0.5-0.2-1-0.5l-97.1-56.1q-0.4-0.3-0.7-0.5-0.2-0.1-0.3-0.2-0.2-0.2-0.5-0.4-0.1-0.1-0.2-0.2-0.2-0.2-0.4-0.3-0.1-0.2-0.3-0.3-0.1-0.2-0.2-0.3-0.2-0.2-0.3-0.4-0.2-0.3-0.3-0.6-0.1 0-0.1-0.1-0.1-0.2-0.2-0.5-0.1-0.1-0.1-0.1-0.1-0.4-0.1-0.7-0.1-0.1-0.1-0.2 0-0.2 0-0.5 0-0.1 0-0.2 0-0.3 0-0.5 0-0.1 0.1-0.1 0-0.3 0.1-0.7 0 0 0-0.1 0.1-0.3 0.3-0.5 0-0.1 0-0.1 0.2-0.3 0.4-0.6 0-0.1 0.1-0.2 0.2-0.3 0.4-0.5 0.1-0.1 0.1-0.1 0.2-0.3 0.5-0.5 0.1-0.1 0.1-0.1 0.4-0.3 0.7-0.6 0.1 0 0.2-0.1 0.3-0.2 0.8-0.5l194.2-112.9q0.4-0.2 0.9-0.4 0.1-0.1 0.2-0.1 1.2-0.6 2.6-1 0 0-0.1 0l-0.2 0.1q-0.1 0-0.2 0.1-0.1 0-0.1 0h-0.2q-0.1 0.1-0.1 0.1-0.1 0-0.2 0l-0.1 0.1q-0.1 0-0.2 0-0.1 0-0.2 0 0 0.1-0.1 0.1-0.1 0-0.1 0-0.1 0-0.2 0v0.1q-0.1 0-0.2 0h-0.1q0 0-0.1 0.1-0.1 0-0.2 0c-2 0.6-3.9 1.3-5.5 2.3l-194.3 112.8q-0.3 0.3-0.7 0.5-0.1 0.1-0.2 0.2-0.3 0.1-0.5 0.3-0.1 0.1-0.3 0.2-0.2 0.2-0.4 0.3-0.1 0.1-0.2 0.2-0.3 0.2-0.5 0.4 0 0.1-0.1 0.1-0.3 0.3-0.5 0.6-0.1 0.1-0.1 0.1-0.2 0.2-0.4 0.4 0 0.1-0.1 0.2-0.2 0.2-0.3 0.4 0 0.1-0.1 0.2-0.1 0.2-0.3 0.5 0 0 0 0.1 0 0 0 0-0.2 0.3-0.3 0.6 0 0.1-0.1 0.1-0.1 0.3-0.1 0.5-0.1 0.1-0.1 0.2 0 0.2-0.1 0.4 0 0.1 0 0.2-0.1 0.2-0.1 0.5 0 0 0 0.1 0 0 0 0 0 0.4 0 0.9 0 0 0 0.1 0 0.4 0.1 0.8 0 0 0 0.1 0 0 0 0.1 0.1 0.2 0.2 0.5 0 0.1 0 0.2 0.1 0.3 0.2 0.6 0.1 0 0.1 0 0 0.1 0 0.2 0.1 0.2 0.2 0.4 0.1 0.1 0.1 0.2 0.1 0.2 0.3 0.4 0 0 0 0.1 0.1 0 0.1 0.1 0.1 0.1 0.2 0.3 0.1 0.1 0.2 0.2 0.1 0.1 0.2 0.3 0.1 0 0.1 0.1 0.1 0.1 0.1 0.1 0.1 0.1 0.2 0.2 0.1 0.2 0.3 0.3 0.1 0.1 0.2 0.2 0 0 0.1 0.1 0 0 0.1 0.1 0.4 0.3 0.8 0.7 0 0 0 0 0.1 0 0.1 0.1 0.4 0.3 0.8 0.5 0.1 0.1 0.1 0.1 0.1 0 0.1 0 0.4 0.3 0.7 0.5l97.2 56.2q0.1 0 0.2 0.1 0.5 0.3 1.1 0.6 0 0 0.1 0 0.1 0 0.2 0.1 0.4 0.2 0.8 0.3 0.2 0.1 0.4 0.2 0.2 0.1 0.3 0.1 0.2 0.1 0.3 0.1 0.5 0.2 1 0.4 0.1 0 0.2 0 0 0.1 0.1 0.1 0.3 0.1 0.6 0.2 0.5 0.1 0.9 0.2 0 0 0.1 0 0 0 0.1 0 0.3 0.1 0.5 0.1 0.4 0.1 0.8 0.2 0.2 0 0.3 0 0.1 0.1 0.1 0.1 0.1 0 0.2 0 0.3 0 0.6 0.1 0.2 0 0.5 0.1 0.3 0 0.5 0 0 0 0 0 0 0 0 0 0.2 0 0.5 0.1 0.2 0 0.4 0 0.3 0 0.5 0 0.2 0.1 0.4 0.1 0 0 0 0 0 0 0 0 0.2 0 0.4 0 0.2 0 0.4 0 0.2 0 0.4 0 0.2 0 0.3 0 0.2 0 0.4 0 0 0 0 0 0 0 0 0 0.2 0 0.4 0 0.2 0 0.4 0 0.2 0 0.4 0 0.2 0 0.3 0 0.2 0 0.3 0 0 0 0 0 0.1 0 0.2 0 0.2-0.1 0.4-0.1 0.2 0 0.4 0 0.3 0 0.6-0.1 0.1 0 0.2 0 0 0 0.1 0 0.1 0 0.2 0 0.4-0.1 0.8-0.1 0.2-0.1 0.4-0.1 0.3 0 0.6-0.1 0.6-0.1 1.1-0.2 0.3-0.1 0.6-0.1 0.1-0.1 0.2-0.1 0.4-0.1 0.8-0.2 0.2-0.1 0.5-0.2 0 0 0 0 0 0 0.1 0 0.2 0 0.4-0.1 0.3-0.1 0.5-0.2 0.2-0.1 0.4-0.1 0.1-0.1 0.2-0.1 0 0 0.1 0 0-0.1 0.1-0.1 0.2-0.1 0.4-0.1 0.2-0.1 0.4-0.2 0.2-0.1 0.4-0.2 0.1 0 0.2-0.1 0 0 0 0 0.1 0 0.2-0.1 0.2-0.1 0.4-0.2 0.2-0.1 0.4-0.2 0.2-0.1 0.4-0.2l194.3-112.9q0 0 0-0.1 0.3-0.1 0.6-0.3 0 0 0 0 0.1-0.1 0.2-0.1 0.1-0.1 0.3-0.2 0 0 0.1-0.1 0.2-0.1 0.3-0.2 0.1-0.1 0.2-0.2 0 0 0.1 0 0.2-0.2 0.4-0.4 0.1 0 0.1-0.1 0.1 0 0.1 0 0.3-0.3 0.6-0.6 0.1 0 0.1-0.1 0 0 0 0 0.4-0.4 0.7-0.8 0 0 0 0 0 0 0 0 0.1-0.1 0.1-0.1 0.2-0.2 0.3-0.4 0.1-0.1 0.1-0.2 0.1-0.1 0.2-0.3 0 0 0 0 0.1-0.1 0.1-0.2 0.1-0.1 0.2-0.3 0.1-0.1 0.1-0.2 0.1-0.1 0.1-0.2 0 0 0-0.1 0.2-0.4 0.3-0.8 0 0 0 0 0-0.1 0.1-0.1 0.1-0.4 0.1-0.8 0 0 0 0 0-0.1 0-0.1 0.1-0.4 0.1-0.7 0-0.1 0-0.1z"/>
							</g>
						</g>
						<path id="&lt;Path&gt;" class="s3" d="m109.9 303.6c13.2 7.6 103.2 59.6 115.6 66.8l176.2-102.4-115.6-66.9z"/>
					</g>
					<g id="&lt;Group&gt;">
						<g id="&lt;Group&gt;">
							<path id="&lt;Path&gt;" class="s4" d="m136.2 369.3c-2.3-1.4-4.2-4.6-4.2-7.2 0-2.7 1.9-3.8 4.2-2.4l9.5 5.5c2.4 1.3 4.2 4.5 4.2 7.2 0 2.6-1.9 3.7-4.2 2.4z"/>
						</g>
						<g id="&lt;Group&gt;">
							<path id="&lt;Path&gt;" class="s3" d="m136.2 369.3c-2.3-1.4-4.2-4.6-4.2-7.2 0-2.7 1.9-3.8 4.2-2.4l9.5 5.5c2.4 1.3 4.2 4.5 4.2 7.2 0 2.6-1.9 3.7-4.2 2.4z"/>
						</g>
						<path id="&lt;Path&gt;" class="s2" d="m132 362.1c0 2.6 1.9 5.8 4.2 7.2l9.5 5.5c1.7 1 3.2 0.6 3.9-0.7q-0.2 0-0.3 0 0 0 0-0.1-0.2 0-0.4-0.1 0 0 0 0-0.2 0-0.4-0.1 0 0 0 0-0.2-0.1-0.5-0.3l-9.5-5.5q-0.2-0.1-0.4-0.2 0 0-0.1-0.1-0.2-0.1-0.3-0.2-0.1-0.1-0.1-0.1-0.2-0.1-0.3-0.3-0.1 0-0.1 0-0.2-0.2-0.3-0.4 0 0-0.1 0-0.1-0.2-0.3-0.4 0 0 0 0-0.2-0.2-0.4-0.5 0 0 0 0-0.1-0.2-0.3-0.4 0-0.1-0.1-0.2-0.1-0.2-0.2-0.3 0 0 0-0.1-0.1-0.2-0.2-0.4-0.1 0-0.1 0-0.1-0.3-0.2-0.5 0 0 0 0-0.1-0.3-0.2-0.5 0 0 0 0-0.1-0.3-0.2-0.6 0 0 0 0-0.1-0.2-0.1-0.5 0 0 0 0-0.1-0.3-0.1-0.5 0 0 0 0-0.1-0.3-0.1-0.5 0 0 0 0 0-0.3 0-0.5 0-0.3 0-0.5 0 0 0 0 0-0.2 0.1-0.4 0-0.1 0-0.1 0-0.2 0.1-0.3 0-0.1 0-0.1 0.1-0.1 0.1-0.3 0 0 0 0-0.7-0.1-1.2 0.2l-0.1 0.1q-0.2 0.1-0.3 0.1 0 0.1 0 0.1-0.1 0.1-0.2 0.2 0 0-0.1 0-0.1 0.1-0.1 0.2 0 0.1-0.1 0.1 0 0 0 0-0.1 0.1-0.1 0.3 0 0 0 0 0 0 0 0-0.1 0.1-0.1 0.2 0 0.1-0.1 0.1 0 0.1 0 0.1 0 0 0 0 0 0.1-0.1 0.3 0 0 0 0 0 0.1 0 0.1 0 0 0 0 0 0.2 0 0.3 0 0 0 0.1 0 0 0 0 0 0 0 0-0.1 0.2-0.1 0.4 0 0.1 0 0.1z"/>
					</g>
					<g id="&lt;Group&gt;">
						<g id="&lt;Group&gt;">
							<path id="&lt;Path&gt;" class="s3" d="m100.1 348.3c-2.4-1.4-4.4-4.8-4.4-7.7 0-2.8 2-3.9 4.4-2.5 2.5 1.4 4.4 4.8 4.4 7.7 0 2.8-2 3.9-4.4 2.5z"/>
						</g>
						<path id="&lt;Path&gt;" class="s2" d="m103.9 348q0 0 0 0-0.1 0-0.2 0 0 0 0 0-0.1 0-0.2 0 0 0-0.1 0 0 0 0 0-0.1-0.1-0.2-0.1 0 0 0 0-0.1 0-0.2 0 0 0 0 0-0.1 0-0.2 0 0-0.1 0-0.1-0.1 0-0.2 0 0 0 0 0-0.1-0.1-0.2-0.1-0.1 0-0.2-0.1-0.1 0-0.1 0-0.1-0.1-0.1-0.1-0.1 0-0.1 0-0.1-0.1-0.2-0.1-0.1-0.1-0.2-0.2 0 0 0 0-0.1 0-0.2-0.1-0.1 0-0.1-0.1-0.1 0-0.2-0.1 0 0 0 0-0.1-0.1-0.2-0.1 0-0.1-0.1-0.1 0 0-0.1-0.1 0 0-0.1-0.1 0 0-0.1-0.1 0 0-0.1-0.1 0 0-0.1-0.1 0 0-0.1 0 0-0.1-0.1-0.2 0 0-0.1 0 0-0.1-0.1-0.2 0 0 0-0.1-0.1-0.1-0.2-0.2 0 0 0 0-0.1-0.1-0.2-0.2-0.1-0.1-0.2-0.2 0 0 0 0-0.1-0.2-0.2-0.4-0.1 0-0.1-0.1-0.1-0.2-0.3-0.4 0-0.1 0-0.1-0.1-0.2-0.2-0.3 0-0.1-0.1-0.2 0 0 0-0.1-0.1-0.1-0.1-0.2 0 0-0.1 0 0-0.2-0.1-0.3 0 0 0 0 0-0.1-0.1-0.2 0-0.1 0-0.1 0-0.1-0.1-0.2 0 0 0-0.1 0-0.1-0.1-0.2 0 0 0 0 0-0.1-0.1-0.3 0 0 0-0.1 0 0 0-0.1-0.1-0.1-0.1-0.1 0-0.1 0-0.2 0 0 0-0.1-0.1-0.1-0.1-0.2 0 0 0-0.1 0-0.1 0-0.2 0 0 0 0-0.1-0.1-0.1-0.3 0 0 0 0 0-0.1 0-0.2 0 0 0-0.1 0-0.1 0-0.2 0 0 0 0 0-0.2 0-0.3 0-0.1 0-0.2 0-0.1 0-0.1 0-0.1 0-0.1 0-0.1 0-0.1 0-0.1 0-0.2 0 0 0-0.1 0 0 0.1-0.1 0 0 0-0.1 0 0 0-0.1 0-0.1 0-0.1 0-0.1 0.1-0.1 0-0.1 0-0.2 0 0 0 0 0.1-0.1 0.1-0.3 0 0 0 0 0.1-0.1 0.2-0.2 0-0.1 0-0.1 0 0 0.1-0.1-0.5 0.1-0.9 0.3-0.1 0.1-0.2 0.1 0 0 0 0 0 0.1-0.1 0.1 0 0-0.1 0.1 0 0-0.1 0 0 0.1-0.1 0.2 0 0 0 0 0 0 0 0.1-0.1 0-0.2 0.1 0 0.1 0 0.1-0.1 0.1-0.1 0.2 0 0 0 0.1-0.1 0-0.1 0 0 0 0 0 0 0.1 0 0.2-0.1 0-0.1 0.1 0 0 0 0 0 0 0 0.1 0 0.1 0 0.1 0 0-0.1 0 0 0.1 0 0.1 0 0.1 0 0.1 0 0 0 0 0 0.1 0 0.1 0 0.1 0 0.1 0 0.1 0 0.1-0.1 0-0.1 0 0 0.1 0 0.2 0 0 0 0 0 0 0 0.1 0 0.1 0 0.1 0 0 0 0 0 0.1 0 0.1 0 0.1 0 0.2 0 0.2 0 0.3 0 0 0 0.1 0 0 0 0.1 0 0.1 0 0.1 0 0.1 0 0.2 0 0 0 0.1 0.1 0.1 0.1 0.2 0 0 0 0.1 0 0 0 0 0 0.1 0 0.2 0 0 0 0.1 0.1 0 0.1 0.1 0 0.1 0 0.1 0 0.1 0 0.2 0.1 0 0.1 0.1 0 0.1 0 0.2 0 0 0 0 0.1 0.2 0.1 0.3 0 0 0 0 0 0 0 0 0.1 0.1 0.1 0.3 0 0 0 0 0.1 0.1 0.1 0.2 0 0.1 0 0.1 0.1 0.1 0.1 0.2 0 0 0 0 0.1 0.2 0.2 0.3 0 0 0 0.1 0 0 0 0 0 0 0.1 0.1 0 0.1 0 0.2 0.1 0 0.1 0.1 0.1 0.2 0.2 0.3 0 0.1 0 0.1 0.2 0.2 0.3 0.5 0.1 0 0.1 0 0.2 0.3 0.4 0.6 0.1 0.1 0.2 0.2 0 0 0 0.1 0.1 0.1 0.2 0.2 0 0 0 0 0.1 0.1 0.2 0.2 0 0 0 0.1 0.1 0 0.2 0.1 0 0 0 0.1 0.1 0 0.1 0.1 0.1 0 0.1 0 0.1 0.1 0.2 0.2 0 0 0 0 0.1 0.1 0.2 0.1 0 0.1 0 0.1 0.1 0.1 0.2 0.1 0 0 0.1 0.1 0 0 0.1 0.1 0 0 0.1 0 0.1 0.1 0.2 0.1 0 0.1 0 0.1 0.1 0 0.2 0.1 0.1 0 0.2 0.1 0 0 0.1 0 0 0.1 0.1 0.1 0 0 0 0 0 0 0.1 0 0.1 0.1 0.2 0.1 0 0 0 0 0.1 0.1 0.2 0.1 0 0 0 0 0 0 0 0 0.1 0 0.2 0.1 0 0 0 0 0 0 0.1 0 0 0 0.1 0 0 0 0 0 0 0 0.1 0 0 0 0.1 0 0 0 0 0 0 0.1 0.1 0.1 0 0 0.1 0 0 0 0 0 0 0 0.1 0 0 0 0.1 0 0 0 0 0 0 0 0.1 0 0 0 0 0 0 0 0 0 0.1 0 0.2 0 0 0 0.1 0 0 0 0 0 0.1 0 0.2-0.1 0 0 0 0 0 0 0 0 0.1 0 0.3 0 0 0 0 0 0 0 0 0 0 0 0 0 0.1-0.1 0.1-0.1 0.1 0 0.1 0 0.1-0.1 0.1-0.1 0.4-0.2 0.7-0.6z"/>
					</g>
					<g id="&lt;Group&gt;">
						<path id="&lt;Path&gt;" class="s2" d="m170.4 347.2q0 0 0-0.1 0-0.1 0-0.2 0-0.1 0-0.1 0 0 0 0 0-0.2-0.1-0.3 0 0 0-0.1 0 0 0-0.1 0-0.1 0-0.1-0.1-0.1-0.1-0.2 0 0 0-0.1-0.1 0-0.1-0.1 0-0.1-0.1-0.2 0 0 0-0.1 0 0 0 0-0.1-0.1-0.2-0.3-0.1 0-0.1 0 0-0.1 0-0.1-0.1-0.1-0.2-0.2 0-0.1-0.1-0.1 0-0.1-0.1-0.1 0-0.1-0.1-0.2-0.1 0-0.2-0.1l-2.2-2q0.1 0.1 0.2 0.2 0.1 0.1 0.1 0.1 0.1 0.1 0.2 0.2 0 0 0 0.1 0.1 0.1 0.2 0.2 0 0.1 0 0.1 0.1 0.1 0.1 0.2 0.1 0 0.1 0.1 0 0.1 0 0.2 0 0 0.1 0 0 0.2 0 0.3 0 0 0 0.1 0 0.1 0 0.2 0 0 0 0.1 0 0.1 0 0.2 0 0 0 0.1 0 0.1-0.1 0.2 0 0 0 0 0 0.2-0.1 0.3 0 0 0 0.1-0.1 0.1-0.2 0.2 0 0.1 0 0.1-0.1 0.1-0.1 0.2-0.1 0.1-0.2 0.1 0 0.1-0.1 0.2-0.1 0-0.1 0.1-0.1 0-0.2 0.1 0 0.1-0.1 0.1-0.1 0.1-0.2 0.2 0 0-0.1 0-0.1 0.1-0.3 0.2-0.2 0.2-0.5 0.3 0 0 0 0-0.2 0.1-0.5 0.2 0 0 0 0-0.2 0.1-0.5 0.2 0 0 0 0-0.3 0-0.5 0.1-0.3 0.1-0.7 0.1-0.2 0.1-0.5 0.1 0 0 0 0-0.3 0.1-0.6 0.1 0 0 0 0-0.3 0-0.6 0 0 0 0 0-0.3 0-0.6 0 0 0 0 0-0.3 0-0.6-0.1 0 0 0 0-0.3 0-0.6-0.1 0 0 0 0-0.3 0-0.5-0.1-0.1 0-0.1 0-0.3 0-0.5-0.1 0 0-0.1 0-0.2-0.1-0.5-0.2 0 0 0 0-0.2-0.1-0.4-0.2-0.1 0-0.1-0.1-0.3-0.1-0.5-0.2l-14.3-8.2q-0.2-0.2-0.3-0.3-0.1 0-0.2-0.1-0.1 0-0.2-0.1-0.1-0.1-0.2-0.3-0.1 0-0.1 0-0.1-0.1-0.3-0.3-0.1-0.1-0.1-0.3 0 0 0 0-0.1-0.1-0.2-0.2 0-0.1-0.1-0.2 0-0.1 0-0.1 0-0.1-0.1-0.3 0 0 0 0 0-0.1 0-0.2 0-0.1 0-0.1 0-0.1 0-0.2 0-0.1 0-0.2 0 0 0-0.1 0-0.1 0-0.2 0.1 0 0.1-0.1 0-0.1 0-0.2 0.1 0 0.1-0.1 0.1-0.1 0.1-0.1 0-0.1 0.1-0.2 0-0.1 0.1-0.1 0-0.1 0.1-0.2 0.1-0.1 0.1-0.1 0.1-0.2 0.3-0.3 0 0 0 0l-2.2 2q-0.2 0.2-0.4 0.4-0.1 0-0.1 0.1-0.1 0.1-0.2 0.3-0.1 0-0.1 0.1-0.1 0.1-0.2 0.3-0.1 0.1-0.1 0.1-0.1 0.2-0.1 0.3 0 0.1-0.1 0.2 0 0.1 0 0.2-0.1 0.1-0.1 0.2 0 0.1 0 0.2 0 0.1 0 0.2 0 0.2 0 0.3 0 0.1 0 0.2 0 0.1 0 0.2 0 0 0 0 0 0.1 0 0.1 0.1 0.2 0.1 0.3 0 0.1 0.1 0.2 0 0.2 0.1 0.3 0 0 0 0 0.1 0.2 0.2 0.4 0 0 0 0 0.1 0.1 0.2 0.3 0 0 0.1 0 0.1 0.2 0.4 0.5 0 0 0 0 0 0 0 0 0.2 0.2 0.4 0.3 0 0.1 0 0.1 0.1 0.1 0.3 0.2 0.1 0 0.2 0.1 0 0 0 0 0.2 0.2 0.4 0.3 0.1 0 0.1 0l14.3 8.3q0.2 0.1 0.4 0.2 0.1 0.1 0.2 0.1 0.1 0 0.1 0.1 0.1 0 0.2 0 0.2 0.2 0.5 0.2 0 0 0 0 0 0 0 0 0.2 0.1 0.5 0.2 0.1 0 0.2 0.1 0 0 0.1 0 0.1 0 0.1 0.1 0.2 0 0.5 0.1 0 0 0.1 0 0 0 0.1 0 0.1 0 0.2 0.1 0.2 0 0.4 0 0 0.1 0.1 0.1 0 0 0.1 0 0 0 0.1 0 0.1 0 0.3 0.1 0.1 0 0.3 0 0 0 0.1 0 0 0 0 0 0.1 0 0.1 0 0.1 0 0.3 0 0.1 0 0.2 0.1 0.1 0 0.2 0 0 0 0 0 0 0 0 0 0.1 0 0.2 0 0.1 0 0.1 0 0.1 0 0.2 0 0.1 0 0.2 0 0.1 0 0.2 0 0 0 0 0 0 0 0 0 0 0 0.1 0 0.1 0 0.2 0 0 0 0.1 0 0.1 0 0.2 0 0.1 0 0.1 0 0.1 0 0.1 0 0 0 0 0 0.1 0 0.1 0 0.1 0 0.2 0 0-0.1 0.1-0.1 0.1 0 0.2 0 0.1 0 0.2 0 0 0 0.1 0 0 0 0 0 0 0 0.1 0 0.1 0 0.2 0 0.2-0.1 0.4-0.1 0 0 0 0 0.5-0.1 1-0.2 0 0 0.1 0 0.1-0.1 0.3-0.1 0.1 0 0.3-0.1 0 0 0 0 0 0 0 0 0.1 0 0.2 0 0.1-0.1 0.2-0.1 0 0 0.1-0.1 0.1 0 0.2 0 0 0 0-0.1 0.1 0 0.1 0 0 0 0.1 0 0.1 0 0.1-0.1 0.1 0 0.2 0 0.1-0.1 0.2-0.1 0 0 0.1-0.1 0 0 0 0 0 0 0.1 0 0.1-0.1 0.2-0.1 0.1-0.1 0.2-0.1 0.1-0.1 0.1-0.1 0.1 0 0.1-0.1 0.2-0.1 0.3-0.1 0.1-0.1 0.1-0.1 0.1-0.1 0.1-0.1 0.1 0 0.1-0.1 0.2-0.1 0.3-0.1 0-0.1 0.1-0.1 0 0 0-0.1 0.1 0 0.2-0.1 0.1-0.1 0.2-0.2 0 0 0 0 0.1-0.1 0.1-0.2 0.1-0.1 0.2-0.2 0 0 0 0 0.1-0.1 0.2-0.2 0-0.1 0.1-0.2 0 0 0 0 0.1-0.2 0.2-0.3 0-0.1 0-0.1 0 0 0 0 0.1-0.2 0.2-0.3 0-0.1 0-0.1 0 0 0-0.1 0-0.1 0.1-0.2 0 0 0-0.1 0 0 0-0.1 0-0.1 0-0.1 0-0.1 0-0.2 0 0 0-0.1z"/>
						<g id="&lt;Group&gt;">
							<path id="&lt;Path&gt;" class="s5" d="m166 341.8c2.4 1.4 2.4 3.7 0 5.1-2.4 1.4-6.4 1.4-8.9 0l-14.3-8.2c-2.4-1.5-2.4-3.8 0-5.2 2.4-1.4 6.4-1.4 8.9 0z"/>
						</g>
					</g>
					<g id="&lt;Group&gt;">
						<g id="&lt;Group&gt;">
							<g id="&lt;Group&gt;">
								<path id="&lt;Path&gt;" class="s2" d="m394.5 285.4c-2.7 1.6-4.9 5.4-4.9 8.5 0 3.2 2.2 4.4 5 2.9 2.7-1.6 4.9-5.4 4.9-8.6 0-3.1-2.2-4.4-5-2.8z"/>
							</g>
							<path id="&lt;Path&gt;" class="s1" d="m387.8 292.7q0 0 0-0.1 0 0 0 0 0-0.1 0-0.2 0 0 0 0 0-0.1 0-0.1 0.1-0.1 0.1-0.1 0-0.1 0-0.1 0-0.1 0-0.1 0 0 0 0 0-0.2 0-0.3 0 0 0 0 0 0 0 0 0-0.1 0.1-0.2 0-0.1 0-0.1 0 0 0-0.1 0 0 0-0.1 0 0 0-0.1 0 0 0.1-0.1 0 0 0-0.1 0 0 0-0.1 0 0 0-0.1 0 0 0 0 0.1-0.1 0.1-0.2 0 0 0-0.1 0 0 0 0 0.1-0.1 0.1-0.2 0 0 0 0 0 0 0-0.1 0-0.1 0.1-0.2 0 0 0 0 0-0.1 0-0.1 0.1-0.1 0.1-0.1 0-0.1 0-0.1 0-0.1 0-0.1 0.1 0 0.1-0.1 0 0 0-0.1 0 0 0.1-0.1 0 0 0 0 0-0.1 0.1-0.2 0 0 0-0.1 0 0 0 0 0.1-0.1 0.1-0.2 0 0 0 0 0.1-0.1 0.1-0.2 0 0 0.1-0.1 0 0 0 0 0.1-0.2 0.2-0.4 0 0 0 0 0-0.1 0-0.1 0.2-0.2 0.4-0.5 0 0 0 0 0 0 0-0.1 0.2-0.3 0.5-0.6 0 0 0-0.1 0.1-0.1 0.2-0.2 0 0 0 0 0 0 0 0 0.1-0.1 0.2-0.2 0 0 0 0 0-0.1 0.1-0.1 0-0.1 0.1-0.1 0 0 0-0.1 0 0 0.1 0 0-0.1 0.1-0.1 0-0.1 0-0.1 0.1 0 0.1-0.1 0.1 0 0.1 0 0-0.1 0-0.1 0.1 0 0.1-0.1 0.1 0 0.1 0 0-0.1 0.1-0.1 0 0 0.1-0.1 0 0 0 0 0.1-0.1 0.1-0.1 0 0 0.1-0.1 0 0 0.1 0 0-0.1 0-0.1 0.1 0 0.1-0.1 0 0 0.1 0 0 0 0.1-0.1 0 0 0.1 0 0 0 0 0 0.1-0.1 0.2-0.2 0 0 0 0 0 0 0 0 0.1 0 0.2-0.1 0 0 0.1 0 0-0.1 0.1-0.1 0 0 0.1-0.1 0 0 0 0 0.1 0 0.1 0 0.1-0.1 0.1-0.1 0 0 0.1 0 0 0 0 0 0.1-0.1 0.2-0.1 0.1 0 0.2-0.1 0 0 0 0 0.1 0 0.1 0 0.1 0 0.1 0 0-0.1 0.1-0.1 0 0 0 0 0.1 0 0.1 0 0 0 0.1 0 0 0 0.1 0 0 0 0 0 0.1-0.1 0.1-0.1 0 0 0.1 0 0 0 0 0 0.1 0 0.1 0 0.1 0 0.1 0 0 0 0 0 0.1 0 0.1 0 0.1 0 0.1 0 0.1 0 0.1 0 0 0 0 0 0.1 0 0.2 0 0 0 0 0 0.1 0 0.1 0 0.1 0 0.2 0 0 0 0 0 0.2 0.1 0.3 0.1 0.1 0 0.1 0 0 0 0 0 0.1 0.1 0.1 0.1 0.1 0 0.1 0 0.1 0.1 0.2 0.1l1.7 1.1q0-0.1-0.1-0.1-0.1-0.1-0.1-0.1-0.1 0-0.1 0-0.1 0-0.1 0-0.1-0.1-0.3-0.1 0 0 0 0-0.1-0.1-0.3-0.1 0 0 0 0-0.1 0-0.2 0 0 0-0.1 0 0 0-0.1 0-0.1 0-0.1 0-0.1 0-0.1 0-0.1 0-0.1 0.1-0.1 0-0.1 0-0.1 0-0.2 0 0 0 0 0-0.1 0-0.2 0 0 0.1-0.1 0.1 0 0-0.1 0-0.1 0-0.1 0-0.1 0.1-0.2 0.1-0.1 0.1-0.2 0.1-0.1 0-0.1 0.1-0.1 0-0.2 0 0 0.1-0.1 0.1-0.1 0-0.2 0.1-0.1 0.1-0.2 0.1 0 0 0 0.1-0.1 0-0.3 0.1 0 0 0 0.1-0.1 0-0.2 0.1 0 0-0.1 0-0.1 0.1-0.1 0.2-0.1 0-0.1 0-0.1 0.1-0.2 0.1 0 0.1-0.1 0.1 0 0.1-0.1 0.1 0 0.1-0.1 0.1-0.1 0.1-0.1 0.2-0.1 0-0.1 0.1-0.1 0-0.1 0.1-0.1 0-0.1 0.1-0.1 0.1-0.2 0.1 0 0.1 0 0.1-0.1 0.1-0.2 0.2 0 0.1-0.1 0.1 0 0.1-0.1 0.2-0.1 0.1-0.2 0.3 0 0 0 0-0.2 0.2-0.3 0.4 0 0-0.1 0-0.1 0.3-0.3 0.6 0 0 0 0-0.1 0.2-0.3 0.4 0 0.1 0 0.1-0.1 0.1-0.1 0.2-0.1 0.1-0.1 0.2 0 0 0 0.1-0.1 0.1-0.2 0.3 0 0 0 0 0 0.1-0.1 0.2 0 0.1 0 0.1-0.1 0.1-0.1 0.2 0 0.1 0 0.1-0.1 0.1-0.1 0.3 0 0 0 0-0.1 0.1-0.1 0.3 0 0 0 0.1-0.1 0.1-0.1 0.2 0 0 0 0.1-0.1 0.1-0.1 0.2 0 0 0 0.1 0 0.1 0 0.2-0.1 0-0.1 0.1 0 0.1 0 0.2 0 0 0 0 0 0.2 0 0.3-0.1 0.1-0.1 0.1 0 0.1 0 0.2 0 0 0 0.1 0 0.1 0 0.2 0 0 0 0.1 0 0.1 0 0.2 0 0.2 0 0.3 0 0 0 0.1 0 0.1 0 0.2 0 0 0 0.1 0 0 0 0.1 0.1 0.1 0.1 0.1 0 0.1 0 0.2 0 0 0 0.1 0 0 0 0.1 0.1 0.1 0.1 0.1 0 0.1 0 0.1 0 0.1 0.1 0.2 0 0 0 0.1 0 0.1 0.1 0.2 0 0 0 0 0.1 0.2 0.2 0.4 0 0 0 0 0.1 0.1 0.1 0.2 0.1 0 0.1 0.1 0.1 0.1 0.2 0.1 0 0 0 0.1 0.1 0 0.2 0.1 0 0 0 0.1 0.1 0 0.2 0.1l-1.7-1q-0.1-0.1-0.3-0.2 0 0 0 0-0.1-0.1-0.2-0.2 0 0 0 0-0.1-0.1-0.2-0.2 0 0 0 0-0.1-0.1-0.2-0.3 0 0 0 0 0 0 0 0-0.1-0.1-0.2-0.3 0 0 0 0 0 0 0 0 0-0.1-0.1-0.3 0 0 0 0 0 0 0 0 0-0.1-0.1-0.2 0 0 0 0 0-0.1 0-0.1 0-0.1 0-0.1 0-0.1-0.1-0.1 0 0 0-0.1 0 0 0-0.1 0 0 0 0 0-0.1 0-0.1 0-0.1 0-0.1 0 0 0-0.1 0 0 0-0.1-0.1 0-0.1-0.1 0 0 0 0 0-0.1 0-0.1 0-0.1 0-0.1 0 0 0 0 0-0.2 0-0.3 0 0 0 0 0-0.1 0-0.2z"/>
						</g>
						<path id="&lt;Path&gt;" class="s3" d="m393.9 288.4l1.3-0.7v2.3l2-1.2v1.5l-2 1.1v2.3l-1.3 0.8v-2.3l-2 1.1v-1.4l2-1.2z"/>
					</g>
					<g id="&lt;Group&gt;">
						<g id="&lt;Group&gt;">
							<g id="&lt;Group&gt;">
								<path id="&lt;Path&gt;" class="s2" d="m378.5 294.9c-2.8 1.6-5 5.4-5 8.6 0.1 3.1 2.3 4.4 5 2.8 2.7-1.6 4.9-5.4 4.9-8.5 0-3.2-2.2-4.5-4.9-2.9z"/>
							</g>
							<path id="&lt;Path&gt;" class="s1" d="m371.8 302.2q0 0 0 0 0-0.1 0-0.1 0-0.1 0-0.1 0-0.1 0-0.1 0-0.1 0-0.1 0 0 0-0.1 0 0 0-0.1 0 0 0-0.1 0 0 0 0 0-0.1 0.1-0.3 0 0 0 0 0 0 0 0 0-0.1 0-0.2 0 0 0 0 0-0.1 0-0.1 0.1-0.1 0.1-0.2 0 0 0 0 0-0.1 0-0.1 0-0.1 0-0.1 0-0.1 0.1-0.1 0-0.1 0-0.1 0-0.1 0-0.1 0-0.1 0-0.1 0-0.1 0.1-0.1 0 0 0-0.1 0-0.1 0.1-0.2 0 0 0 0 0 0 0 0 0-0.1 0-0.3 0 0 0.1 0 0 0 0-0.1 0 0 0-0.1 0 0 0.1-0.1 0 0 0-0.1 0 0 0 0 0.1-0.1 0.1-0.2 0 0 0-0.1 0 0 0 0 0.1-0.1 0.1-0.2 0 0 0 0 0.1-0.1 0.1-0.1 0-0.1 0.1-0.2 0 0 0 0 0-0.1 0.1-0.2 0 0 0-0.1 0 0 0 0 0.1-0.2 0.2-0.4 0.1 0 0.1 0 0 0 0 0 0.1-0.3 0.3-0.6 0 0 0 0 0 0 0.1 0 0.2-0.4 0.5-0.7 0 0 0 0 0-0.1 0.1-0.2 0 0 0-0.1 0.1 0 0.1 0 0-0.1 0.1-0.2 0 0 0.1 0 0 0 0-0.1 0.1 0 0.1-0.1 0 0 0.1 0 0-0.1 0-0.1 0.1-0.1 0.1-0.1 0.1 0 0.1 0 0-0.1 0.1-0.1 0-0.1 0-0.1 0.1 0 0.1-0.1 0 0 0.1-0.1 0 0 0.1 0 0 0 0-0.1 0.1 0 0.1-0.1 0.1 0 0.1 0 0 0 0.1-0.1 0 0 0.1-0.1 0 0 0 0 0 0 0.1-0.1 0 0 0.1 0 0 0 0-0.1 0.1 0 0.1 0 0.1-0.1 0.1-0.1 0 0 0 0 0.1-0.1 0.2-0.2 0 0 0 0 0.1 0 0.1 0 0.1 0 0.2-0.1 0 0 0 0 0.1-0.1 0.2-0.1 0 0 0 0 0.1 0 0.1-0.1 0 0 0.1 0 0 0 0.1 0 0-0.1 0-0.1 0 0 0.1 0 0.1 0 0.2-0.1 0.1 0 0.2-0.1 0 0 0 0 0 0 0.1 0 0 0 0.1 0 0 0 0 0 0.1 0 0.1-0.1 0 0 0.1 0 0 0 0 0 0.1 0 0.1 0 0 0 0.1 0 0 0 0 0 0.1 0 0.1 0 0.1-0.1 0.1-0.1 0 0 0.1 0 0 0 0.1 0 0 0 0 0 0 0 0.1 0 0 0 0.1 0 0 0 0 0 0.1 0 0.1 0 0.1 0 0.1 0 0.1 0 0.1 0 0 0 0 0 0.1 0 0.3 0.1 0 0 0 0 0.1 0 0.3 0.1 0 0 0 0 0 0 0 0 0.1 0 0.2 0 0 0 0 0.1 0.1 0 0.2 0l1.8 1.1q-0.1-0.1-0.2-0.1 0 0-0.1 0 0-0.1-0.1-0.1 0 0 0 0-0.2-0.1-0.3-0.1-0.1 0-0.1 0-0.1 0-0.2 0 0 0-0.1 0-0.1-0.1-0.1-0.1-0.1 0-0.1 0-0.1 0-0.2 0.1 0 0-0.1 0 0 0-0.1 0 0 0-0.1 0 0 0-0.1 0 0 0-0.1 0-0.1 0-0.1 0-0.1 0.1-0.1 0.1-0.1 0-0.1 0-0.1 0-0.2 0 0 0.1 0 0.1-0.2 0-0.3 0.1-0.1 0-0.2 0 0 0.1-0.1 0.1 0 0-0.1 0.1-0.1 0-0.1 0-0.1 0.1-0.2 0.1-0.1 0.1-0.3 0.2 0 0 0 0-0.1 0.1-0.2 0.1-0.1 0.1-0.1 0.1-0.1 0-0.1 0.1-0.1 0-0.1 0.1-0.1 0-0.2 0.1 0 0-0.1 0.1 0 0-0.1 0.1-0.1 0-0.1 0.1-0.1 0-0.1 0.1-0.1 0-0.1 0.1-0.1 0-0.2 0.1 0 0-0.1 0.1 0 0-0.1 0.1 0 0.1-0.1 0.1 0 0.1-0.1 0.2 0 0-0.1 0-0.1 0.1-0.2 0.3 0 0 0 0-0.1 0.1-0.2 0.2-0.1 0.1-0.2 0.3 0 0 0 0-0.1 0.2-0.3 0.4 0 0 0 0.1-0.2 0.2-0.3 0.5-0.1 0-0.1 0.1-0.1 0.1-0.2 0.3 0 0.1-0.1 0.2 0 0 0 0.1-0.1 0.1-0.2 0.2 0 0.1 0 0.1 0 0.1-0.1 0.3 0 0 0 0.1-0.1 0.1-0.1 0.2 0 0-0.1 0.1 0 0.1 0 0.1-0.1 0.1-0.1 0.1 0 0.2-0.1 0.3 0 0 0 0 0 0.2-0.1 0.3 0 0.1 0 0.1 0 0.1 0 0.2-0.1 0-0.1 0.1 0 0.1 0 0.2 0 0 0 0.1-0.1 0.1-0.1 0.2 0 0 0 0.1 0 0.1-0.1 0.2 0 0 0 0.1 0 0.1 0 0.2 0 0.1 0 0.1 0 0.1 0 0.2 0 0.1 0 0.1 0 0.1 0 0.2 0 0.1 0 0.1-0.1 0.1-0.1 0.3 0 0.1 0.1 0.2 0 0.1 0 0.1 0 0.1 0 0.2 0 0 0 0.1 0 0.1 0 0.1 0 0.1 0 0.1 0 0.1 0 0.2 0 0 0.1 0.1 0 0.1 0 0.1 0 0.1 0 0.2 0 0 0.1 0.1 0 0 0 0.1 0 0.1 0 0.1 0.1 0.1 0.1 0.3 0 0 0.1 0 0 0.1 0.1 0.3 0 0 0 0 0.1 0.1 0.2 0.2 0 0.1 0 0.1 0.1 0.1 0.2 0.2 0 0 0 0 0.1 0.1 0.2 0.2 0 0 0.1 0 0.1 0.1 0.2 0.1l-1.8-1q-0.1-0.1-0.2-0.1 0-0.1-0.1-0.1-0.1-0.1-0.2-0.2 0 0 0 0-0.1-0.1-0.1-0.2-0.1 0-0.1 0-0.1-0.1-0.1-0.2 0 0 0 0 0 0-0.1-0.1 0-0.1-0.1-0.3 0 0 0 0 0 0 0 0-0.1-0.1-0.1-0.2 0 0 0-0.1-0.1 0-0.1 0 0-0.1 0-0.2 0 0 0 0 0 0 0-0.1-0.1 0-0.1-0.1 0 0 0-0.1 0 0 0 0 0-0.1 0-0.1 0-0.1 0-0.1-0.1 0-0.1-0.1 0 0 0-0.1 0 0 0 0 0-0.1 0-0.1 0-0.1 0-0.1 0-0.1 0-0.1 0-0.1 0-0.1 0-0.1 0-0.1 0 0 0 0 0-0.1 0-0.3 0 0 0 0 0-0.1 0-0.2z"/>
						</g>
						<path id="&lt;Path&gt;" class="s3" d="m381.1 298.4v1.4l-5.2 3.1v-1.5z"/>
					</g>
					<g id="&lt;Group&gt;">
						<g id="&lt;Group&gt;">
							<path id="&lt;Path&gt;" class="s3" d="m163.3 381.4c-1-0.5-1.7-1.8-1.7-2.9 0-1.1 0.8-1.5 1.7-1 0.9 0.6 1.7 1.9 1.7 2.9 0 1.1-0.8 1.5-1.7 1z"/>
						</g>
						<g id="&lt;Group&gt;">
							<path id="&lt;Path&gt;" class="s3" d="m168 384.1c-0.9-0.5-1.7-1.8-1.7-2.9 0-1 0.8-1.5 1.7-0.9 0.9 0.5 1.7 1.8 1.7 2.9 0 1-0.8 1.5-1.7 0.9z"/>
						</g>
						<g id="&lt;Group&gt;">
							<path id="&lt;Path&gt;" class="s3" d="m172.7 386.9c-0.9-0.6-1.7-1.9-1.7-2.9 0-1.1 0.8-1.5 1.7-1 0.9 0.5 1.7 1.8 1.7 2.9 0 1.1-0.8 1.5-1.7 1z"/>
						</g>
						<g id="&lt;Group&gt;">
							<path id="&lt;Path&gt;" class="s3" d="m177.4 389.6c-0.9-0.5-1.7-1.8-1.7-2.9 0-1.1 0.8-1.5 1.7-1 0.9 0.6 1.7 1.9 1.7 2.9 0 1.1-0.8 1.5-1.7 1z"/>
						</g>
					</g>
				</g>
				<g id="&lt;Group&gt;">
					<g id="&lt;Group&gt;">
						<path id="&lt;Path&gt;" class="s6" d="m312.4 279.7c5.7 3.2 5.7 8.6 0.1 11.8l-46.2 26.9c-5.6 3.3-14.8 3.3-20.5 0l-46.5-26.8c-5.6-3.3-5.7-8.7 0-11.9l46.1-26.9c5.7-3.2 14.9-3.2 20.6 0z"/>
					</g>
					<g id="&lt;Group&gt;">
						<path id="&lt;Compound Path&gt;" class="s7" d="m295.9 285.9c4 2.3 4 6.1 0 8.4l-24.9 14.5c-4 2.3-10.5 2.3-14.5 0l-40.6-23.5c-4-2.3-4.1-6.1-0.1-8.4l24.9-14.5c4-2.3 10.5-2.3 14.5 0zm-44.2-21.4q-0.5-0.3-1.2-0.5l2.5 20.1c0.1 0.9 0.8 1.6 1.8 2.2 0.9 0.6 2.3 1 3.8 1l34.7 1.4q-0.4-0.4-0.9-0.7zm8.4 42.2q0.5 0.3 1 0.5l-2-17h-0.9c-2.7-0.1-5.2-0.8-7-1.9-1.9-1-3.1-2.4-3.3-4v-0.5l-29.3-1.2q0.4 0.4 0.8 0.6zm-40.6-27.7q-0.6 0.3-1 0.7l29.1 1.2-2.1-16.9q-0.6 0.2-1.2 0.5zm48.1 27.8l24.9-14.5q0.5-0.3 0.9-0.7l-29.1-1.1 2 16.8q0.7-0.2 1.3-0.5z"/>
					</g>
					<g id="&lt;Group&gt;">
						<g id="&lt;Group&gt;">
							<path id="&lt;Path&gt;" class="s8" d="m328.4 275.9c8.1 4.7 8.1 12.3 0.1 16.9-8 4.7-21.1 4.7-29.2 0-8.1-4.6-8.1-12.2-0.1-16.9 8-4.6 21.1-4.6 29.2 0z"/>
						</g>
						<g id="&lt;Group&gt;">
							<path id="&lt;Path&gt;" class="s7" d="m322.1 278.3q2.5 1.4 2.4 3.2 0 1.5-1.6 2.4-2.3 1.3-6.3 0.7 1.2 1 1 2.2-0.2 1.2-1.8 2.1-2.3 1.4-5.6 1.3-3.3 0-5.9-1.5-2.4-1.3-2.6-3.1-0.2-1.7 1.8-3.1l3.6 1.7q-1 0.8-1 1.6 0 0.7 1 1.3 1 0.6 2.5 0.6 1.5-0.1 2.9-0.9 1.3-0.7 1.3-1.5 0.1-0.9-0.9-1.4-0.7-0.4-1.8-0.8l3.1-1.4q0 0.1 0.1 0.1 1.3 0.8 2.6 0.8 1.3 0.1 2.4-0.5 0.9-0.6 0.8-1.2 0-0.6-0.8-1.1-0.9-0.5-2.1-0.5-1.2 0-2.5 0.6l-2.6-2.1q1.9-0.8 3.5-0.9 1.6-0.2 3.3 0.2 1.8 0.3 3.2 1.2z"/>
						</g>
					</g>
				</g>
				<g id="&lt;Group&gt;" style="mix-blend-mode: screen">
					<path id="&lt;Path&gt;" class="s9" d="m405.5 255.1c5.1 2.9 5.1 7.7 0 10.6 0 0-314.9 49.1-309.8 46.1l194.2-112.9c5.1-2.9 13.4-2.9 18.5 0z"/>
				</g>
				<g id="&lt;Group&gt;">
					<g id="&lt;Group&gt;">
						<path id="&lt;Path&gt;" class="s0" d="m361.9 234.9c1.6 0.9 1.6 2.3 0.1 3.2-1.6 0.9-4 0.9-5.6 0l-15.6-9c-1.5-0.9-1.5-2.4 0-3.3 1.5-0.8 4-0.8 5.5 0z"/>
					</g>
					<g id="&lt;Group&gt;">
						<path id="&lt;Path&gt;" class="s0" d="m337.3 220.5c1.6 0.9 1.6 2.4 0 3.3-1.5 0.9-4 0.9-5.6 0-1.5-0.9-1.5-2.4 0-3.3 1.5-0.8 4.1-0.8 5.6 0z"/>
					</g>
				</g>
			</g>
			<g id="&lt;Group&gt;">
				<g id="&lt;Group&gt;">
					<path id="&lt;Path&gt;" class="s10" d="m107.9 189.5q0.1-0.4 0.2-0.8 0.1-0.5 0.2-0.9 0-0.3 0.1-0.6 0.2-0.6 0.4-1.3 0-0.1 0-0.2 0.3-0.7 0.6-1.4 0-0.2 0.1-0.4 0.3-0.6 0.6-1.3 0-0.1 0.1-0.1 0.3-0.7 0.7-1.4 0.1-0.1 0.2-0.3 0.3-0.7 0.8-1.4l-8.2-4.7q0 0 0 0-0.3 0.5-0.6 1-0.1 0.2-0.2 0.4-0.1 0.1-0.2 0.3-0.1 0.2-0.2 0.3-0.2 0.5-0.5 1.1 0 0 0 0 0 0 0 0.1-0.2 0.4-0.4 0.9-0.1 0.2-0.2 0.4-0.1 0.2-0.2 0.4 0 0.1-0.1 0.3-0.2 0.5-0.4 1.1 0 0 0 0 0 0.1 0 0.2-0.2 0.5-0.4 1 0 0.1 0 0.3-0.1 0.2-0.2 0.5 0 0.3-0.1 0.6 0 0.1-0.1 0.3 0 0.5-0.1 0.9 0 0.2-0.1 0.4 0 0.2 0 0.3-0.1 1-0.1 2l0.2 67c0 3.7 1.3 6.4 3.4 7.6l8.2 4.7c-2.2-1.2-3.5-3.8-3.5-7.6l-0.2-66.9q0-1 0.1-2.1 0.1-0.3 0.1-0.7z"/>
					<g id="&lt;Group&gt;">
						<path id="&lt;Path&gt;" class="s11" d="m254.2 97.3c2.5 1 4.2 3.8 4.2 8l0.2 66.9c0 7.5-5.3 16.7-11.8 20.5l-127 73.3c-6.5 3.8-11.9 0.8-11.9-6.8l-0.2-66.9c0-4.2 1.6-8.9 4.2-12.9l62.9 12.1c2.6 0.5 5.5-0.2 8.4-1.9 2.9-1.7 5.8-4.3 8.3-7.7z"/>
					</g>
					<path id="&lt;Path&gt;" class="s12" d="m254.9 97.6l-8.1-4.7q0 0-0.1 0-0.3-0.2-0.6-0.3 0 0-0.1-0.1v0.1l-62.7 84.6q-0.8 1.1-1.8 2.2-0.2 0.3-0.5 0.6-0.6 0.6-1.3 1.2-0.7 0.8-1.5 1.4-0.4 0.4-0.8 0.7-1.2 0.9-2.4 1.6-1 0.6-2.1 1-0.1 0.1-0.2 0.1-0.9 0.3-1.8 0.6-0.2 0-0.4 0-0.9 0.3-1.8 0.3 0 0-0.1 0-1 0-1.9-0.1l-62.6-12-0.3-0.2-0.1 0.1 8.2 4.7 62.9 12.1q0.1 0 0.2 0 0.4 0.1 0.9 0.1 0.4 0 0.9 0 0 0 0 0 0 0 0.1 0 0.5 0 1.1-0.1 0.3 0 0.6-0.1 0.2-0.1 0.4-0.1 0.2 0 0.3-0.1 0.8-0.2 1.5-0.5 0.1 0 0.2-0.1 0 0 0.1 0 1-0.4 2.1-1 1.2-0.7 2.3-1.6 0.4-0.3 0.8-0.6 0.8-0.7 1.6-1.4 0.1-0.2 0.3-0.3 0.5-0.5 0.9-1 0.3-0.3 0.6-0.6 0-0.1 0.1-0.2 0.6-0.7 1.2-1.4 0.3-0.3 0.5-0.6l62.7-84.6q0.4 0.1 0.7 0.3 0 0 0 0z"/>
				</g>
				<g id="&lt;Group&gt;">
					<g id="&lt;Group&gt;">
						<path id="&lt;Path&gt;" class="s12" d="m176.4 83.2c2.9-1.7 5.8-2.4 8.3-1.9l63 12.1-62.7 84.7c-2.6 3.4-5.5 6-8.4 7.7-2.9 1.7-5.8 2.4-8.3 1.9l-62.9-12.1 62.7-84.7c2.5-3.4 5.4-6 8.3-7.7z"/>
					</g>
					<path id="&lt;Path&gt;" class="s10" d="m180.5 81.5q0.2 0 0.4-0.1 0.9-0.2 1.8-0.2 0 0 0.1 0 1-0.1 1.9 0.1l63 12.1-1.7-1-62.9-12q-0.1-0.1-0.2-0.1-0.4 0-0.9-0.1-0.4 0-0.9 0 0 0 0 0 0 0-0.1 0-0.5 0-1.1 0.1-0.3 0.1-0.6 0.2-0.2 0-0.4 0-0.2 0.1-0.3 0.1-0.8 0.2-1.5 0.5-0.1 0.1-0.2 0.1 0 0-0.1 0-1 0.4-2.1 1.1-1.2 0.7-2.3 1.6-0.4 0.3-0.8 0.6-0.8 0.6-1.6 1.4-0.1 0.1-0.3 0.3-0.5 0.4-0.9 1-0.3 0.2-0.6 0.5 0 0.1-0.1 0.2-0.6 0.7-1.2 1.5-0.3 0.3-0.5 0.6l-62.7 84.7 1.7 0.9 62.7-84.7q0.8-1.2 1.8-2.2 0.2-0.3 0.5-0.6 0.6-0.7 1.3-1.3 0.7-0.7 1.5-1.4 0.4-0.3 0.8-0.6 1.2-0.9 2.4-1.6 1-0.6 2.1-1.1 0.1 0 0.2 0 0.9-0.4 1.8-0.6z"/>
				</g>
				<g id="&lt;Group&gt;">
					<g id="&lt;Group&gt;">
						<g id="&lt;Group&gt;">
							<path id="&lt;Path&gt;" class="s13" d="m206 78c5.7-3.3 11.2-2.7 13.7 2.2l18.3 35.2-47.8 64.5c-2.5 3.4-5.4 6.1-8.3 7.7-2.8 1.7-5.7 2.4-8.3 1.9l-55.5-10.6c1.3-4.9 4-9.9 7.7-14l74-81.7c2-2.2 4.2-4 6.2-5.2z"/>
						</g>
						<path id="&lt;Path&gt;" class="s7" d="m203.8 79.5q1.1-0.8 2.2-1.5 1-0.5 1.9-0.9 0.3-0.1 0.6-0.2 0.5-0.2 1.1-0.4 0.3-0.1 0.6-0.2 0.3-0.1 0.6-0.1 0.4-0.1 0.8-0.1 0.2-0.1 0.4-0.1 0.5 0 0.9 0 0.2 0 0.3 0 0.6 0 1.2 0.1 0.1 0 0.2 0.1 0.4 0.1 0.9 0.2 0.1 0.1 0.2 0.1 0.6 0.2 1 0.5l-1.6-1q0 0-0.1 0-0.3-0.2-0.7-0.4-0.1 0-0.2 0-0.1-0.1-0.3-0.1-0.1-0.1-0.3-0.2-0.3 0-0.5-0.1-0.2 0-0.3 0 0 0 0 0-0.5-0.1-1-0.2 0 0-0.1 0-0.1 0-0.3 0-0.3 0-0.6 0-0.1 0.1-0.3 0.1-0.2 0-0.4 0-0.2 0-0.4 0.1-0.2 0-0.4 0-0.3 0.1-0.7 0.2-0.1 0-0.2 0-0.2 0.1-0.4 0.2-0.5 0.1-1.1 0.3-0.1 0.1-0.3 0.1-0.1 0.1-0.2 0.2-0.9 0.3-1.9 0.9-1.1 0.6-2.2 1.5-0.3 0.2-0.5 0.4-1.1 0.8-2.2 1.9 0 0-0.1 0.1-0.6 0.6-1.2 1.2l-74 81.8q-0.2 0.2-0.5 0.5-0.6 0.7-1.2 1.5-0.4 0.5-0.9 1.1 0 0.1 0 0.1 0 0.1-0.1 0.1-0.4 0.6-0.8 1.3-0.4 0.6-0.8 1.2-0.2 0.4-0.4 0.8-0.1 0.1-0.1 0.1-0.1 0.2-0.2 0.4-0.3 0.6-0.6 1.2-0.3 0.7-0.6 1.3-0.1 0.3-0.2 0.6-0.1 0.1-0.1 0.2-0.2 0.3-0.3 0.5-0.2 0.8-0.5 1.5-0.2 0.7-0.4 1.5 0 0 0 0l1.6 1q0.5-1.8 1.2-3.6 0-0.1 0.1-0.2 0.7-1.7 1.6-3.4 0.1-0.1 0.1-0.2 1-1.7 2.1-3.3 0-0.1 0.1-0.1 1.1-1.7 2.5-3.2l74-81.7q0.7-0.7 1.4-1.4 1-1 2.1-1.9 0.3-0.2 0.5-0.4z"/>
					</g>
					<g id="&lt;Group&gt;">
						<g id="&lt;Group&gt;">
							<path id="&lt;Path&gt;" class="s6" d="m227.5 86.6c7.3-4.2 13.7-1.8 14.9 6.1l2.1 15-54 72.9c-2.5 3.4-5.4 6.1-8.3 7.7-2.9 1.7-5.8 2.4-8.3 1.9l-40.7-7.8-1-6.9c-1.3-8.7 4.3-20.8 12.5-27l80.6-60.4q1.1-0.8 2.2-1.5z"/>
						</g>
						<path id="&lt;Path&gt;" class="s14" d="m230 85.4q0.5-0.2 1-0.3 0.4-0.1 0.7-0.2 0.3-0.1 0.6-0.1 0.4-0.1 0.8-0.1 0.2-0.1 0.5-0.1 0.4 0 0.9 0 0.1 0 0.2 0 0.6 0 1.2 0.1 0.1 0.1 0.2 0.1 0.4 0.1 0.8 0.2 0.2 0.1 0.3 0.1 0.5 0.2 1 0.5l-1.6-1q-0.1 0-0.1 0-0.4-0.2-0.8-0.4 0 0-0.1 0-0.2-0.1-0.3-0.1-0.2-0.1-0.4-0.2-0.2 0-0.4-0.1-0.1 0-0.3 0 0 0-0.1 0-0.4-0.1-0.9-0.2-0.1 0-0.1 0-0.1 0-0.2 0-0.4 0-0.7 0-0.1 0-0.3 0.1-0.2 0-0.4 0-0.2 0-0.4 0-0.2 0.1-0.4 0.1-0.3 0.1-0.6 0.2-0.2 0-0.4 0-0.1 0.1-0.3 0.2-0.5 0.1-1 0.3-0.2 0.1-0.4 0.1-0.1 0.1-0.2 0.1-0.9 0.4-1.9 1-1.1 0.6-2.2 1.5l-80.6 60.4q-1.4 1.1-2.7 2.3 0 0.1-0.1 0.1 0 0.1-0.1 0.1-0.7 0.8-1.5 1.6 0 0 0 0.1-0.5 0.5-0.9 1-0.1 0.2-0.3 0.4 0 0 0 0-0.6 0.7-1 1.4-0.1 0.1-0.1 0.1-0.2 0.2-0.3 0.4-0.3 0.4-0.5 0.8-0.1 0.2-0.3 0.4-0.1 0.2-0.2 0.5-0.2 0.2-0.3 0.4-0.3 0.4-0.5 0.9-0.1 0.1-0.1 0.2-0.1 0.1-0.1 0.1-0.3 0.7-0.6 1.3-0.1 0.1-0.1 0.2-0.1 0.3-0.2 0.5-0.2 0.3-0.3 0.6-0.2 0.3-0.3 0.7-0.1 0.2-0.2 0.4 0 0.1-0.1 0.3-0.3 0.7-0.5 1.4 0 0 0 0 0 0.1 0 0.1-0.3 0.7-0.5 1.4 0 0.1 0 0.2-0.1 0.4-0.2 0.7-0.1 0.4-0.2 0.8 0 0.1 0 0.3-0.2 0.7-0.3 1.4 0 0.2 0 0.4 0 0.1-0.1 0.1-0.1 1.2-0.1 2.4 0 0.3 0 0.6 0 1.2 0.1 2.3l1.1 7 1.6 0.9-1-6.9q-0.2-1.2-0.2-2.4 0-0.2 0-0.5 0-1.2 0.2-2.4 0-0.3 0.1-0.6 0.1-0.7 0.2-1.4 0.1-0.5 0.2-1 0.1-0.4 0.2-0.8 0.2-0.8 0.5-1.6 0 0 0-0.1 0.3-0.8 0.6-1.6 0.1-0.3 0.2-0.5 0.3-0.6 0.6-1.3 0.1-0.2 0.2-0.4 0.4-0.8 0.8-1.6 0-0.1 0.1-0.2 0.4-0.7 0.8-1.4 0.1-0.2 0.3-0.4 0.3-0.7 0.7-1.2 0.2-0.2 0.3-0.4 0.5-0.8 1.1-1.5 0.2-0.3 0.4-0.5 0.4-0.5 0.8-1 0.8-0.9 1.6-1.7 0.1-0.1 0.2-0.2 1.3-1.2 2.6-2.3l80.6-60.4q1.1-0.8 2.2-1.5 1-0.5 1.9-0.9 0.3-0.1 0.6-0.3z"/>
					</g>
					<g id="&lt;Group&gt;">
						<g id="&lt;Group&gt;">
							<path id="&lt;Path&gt;" class="s15" d="m152.3 151.4q0.7-0.3 1.3-0.6l83.2-39.9c2.5-1.3 4.9-1.6 6.9-1.1l-53 71.5c-2.5 3.3-5.4 6-8.3 7.7-2.9 1.6-5.8 2.3-8.3 1.9l-36.3-7 0.6-9.7c0.6-8.7 6.7-18.6 13.9-22.8z"/>
						</g>
						<path id="&lt;Path&gt;" class="s16" d="m238.9 110.1q0.8-0.3 1.5-0.4 0.1 0 0.1 0 0.8-0.1 1.5-0.1 0.1 0 0.2 0 0.8 0 1.5 0.2l-1.7-0.9q-0.2-0.1-0.4-0.1-0.4-0.1-0.9-0.1-0.1 0-0.1 0-0.1 0-0.3 0-0.2-0.1-0.5 0-0.5 0-0.9 0-0.1 0-0.1 0.1 0 0 0 0-0.6 0-1.3 0.2-0.1 0.1-0.3 0.1-0.3 0.1-0.6 0.2c-0.3 0.1-0.5 0.2-0.7 0.3q-0.4 0.1-0.8 0.3l-83.2 39.9q-0.6 0.3-1.2 0.7-1.1 0.6-2.2 1.5-0.1 0.1-0.3 0.2-1 0.8-1.9 1.7-0.1 0.1-0.2 0.2-0.1 0.1-0.2 0.2-0.6 0.6-1.2 1.2-0.1 0.1-0.2 0.2 0 0.1 0 0.1-0.3 0.3-0.6 0.7-0.3 0.3-0.5 0.6 0 0 0 0.1-0.2 0.2-0.3 0.4-0.3 0.4-0.6 0.8-0.1 0.1-0.1 0.1-0.2 0.2-0.3 0.5-0.3 0.3-0.5 0.6-0.1 0.2-0.2 0.3-0.1 0.3-0.2 0.5-0.2 0.2-0.3 0.4-0.2 0.3-0.4 0.7-0.1 0.1-0.2 0.3 0 0.1 0 0.2-0.4 0.5-0.6 1.1-0.1 0.1-0.1 0.1-0.1 0.2-0.1 0.3-0.2 0.5-0.4 0.9-0.1 0.1-0.1 0.3-0.1 0.3-0.2 0.5-0.1 0.2-0.2 0.4-0.1 0.3-0.2 0.7-0.1 0.2-0.2 0.4-0.1 0.1-0.1 0.2-0.2 0.6-0.3 1.1-0.1 0.2-0.1 0.3 0 0 0 0.1-0.2 0.6-0.3 1.2-0.1 0.2-0.1 0.4 0 0 0 0 0 0 0 0.1-0.2 0.8-0.3 1.7 0 0.1-0.1 0.1 0 0.7-0.1 1.4l-0.6 9.7 1.6 0.9 0.6-9.7q0.1-0.7 0.2-1.5 0.1-0.8 0.3-1.7 0 0 0-0.1 0.1-0.2 0.1-0.3 0.1-0.7 0.3-1.3 0.1-0.2 0.1-0.3 0.2-0.7 0.4-1.3 0.1-0.2 0.2-0.5 0.2-0.5 0.4-1.1 0.1-0.2 0.2-0.4 0.2-0.6 0.5-1.2 0.1-0.2 0.1-0.3 0.4-0.7 0.8-1.4 0.1-0.2 0.2-0.4 0.3-0.5 0.6-1.1 0.1-0.2 0.3-0.4 0.3-0.5 0.6-1 0.1-0.2 0.3-0.4 0.3-0.5 0.7-1 0.1-0.2 0.3-0.4 0.2-0.3 0.5-0.7 0.3-0.3 0.6-0.7 0.1-0.1 0.2-0.2 0.6-0.7 1.2-1.3 0.2-0.2 0.4-0.3 1-1 2-1.8 0.1-0.1 0.2-0.2 1.1-0.8 2.2-1.5 0.7-0.3 1.3-0.6l83.2-39.9c0.4-0.3 0.9-0.4 1.4-0.6q0.3-0.1 0.7-0.2z"/>
					</g>
				</g>
				<g id="&lt;Group&gt;">
					<g id="&lt;Group&gt;">
						<path id="&lt;Path&gt;" class="s11" d="m184 175.4c2.9-1.6 5.8-2.3 8.3-1.9l63 12.1c-2.1 3.2-4.8 6-7.7 7.7l-126.9 73.3c-3 1.7-5.6 2-7.7 1.2l62.7-84.7c2.5-3.3 5.4-6 8.3-7.7z"/>
					</g>
					<path id="&lt;Path&gt;" class="s10" d="m188.1 173.7q0.2 0 0.4-0.1 0.9-0.2 1.8-0.2 0.1 0 0.1 0 1 0 1.9 0.1l63 12.1-1.7-0.9-62.9-12.1q-0.1 0-0.2 0-0.4-0.1-0.9-0.1-0.4-0.1-0.8 0-0.1 0-0.1 0 0 0 0 0-0.6 0-1.2 0.1-0.3 0-0.6 0.1-0.2 0-0.4 0.1-0.1 0-0.3 0-0.7 0.3-1.5 0.6-0.1 0-0.2 0 0 0 0 0-1.1 0.5-2.2 1.1-1.1 0.7-2.3 1.6-0.4 0.3-0.8 0.6-0.8 0.7-1.6 1.4-0.1 0.2-0.3 0.3-0.5 0.5-0.9 1-0.3 0.3-0.5 0.6-0.1 0-0.2 0.1-0.6 0.7-1.2 1.5-0.2 0.3-0.5 0.6l-62.7 84.6 1.7 1 62.7-84.7q0.9-1.1 1.8-2.2 0.3-0.3 0.5-0.6 0.6-0.6 1.3-1.2 0.8-0.8 1.5-1.4 0.4-0.4 0.8-0.7 1.2-0.9 2.4-1.6 1.1-0.6 2.1-1 0.1-0.1 0.2-0.1 0.9-0.3 1.8-0.6z"/>
				</g>
			</g>
			<g id="&lt;Group&gt;">
				<g id="&lt;Group&gt;">
					<g id="&lt;Group&gt;">
						<path id="&lt;Compound Path&gt;" class="s11" d="m319 88.8l49.6 27.2 4.5 20.1z"/>
					</g>
					<g id="&lt;Group&gt;">
						<path id="&lt;Compound Path&gt;" class="s11" d="m319 88.8l49.6 27.2 4.5 20.1zm21 14.7l28.6 25-2.4-10.7z"/>
					</g>
				</g>
				<g id="&lt;Group&gt;">
					<path id="&lt;Compound Path&gt;" class="s10" d="m404.1 106.7l-35.4 11.1-19.4 20.5-30.3-49.3z"/>
				</g>
				<g id="&lt;Group&gt;">
					<path id="&lt;Compound Path&gt;" class="s11" d="m404.1 106.7l-35.4 11.1-19.4 20.5-30.3-49.3zm-36.3 9l27.4-8.6-65.7-13.7zm-41.2-20.7l23.4 38.1 15-15.8z"/>
				</g>
			</g>
			<g id="&lt;Group&gt;">
				<path id="&lt;Path&gt;" fill-rule="evenodd" class="s1" d="m392.9 149.8c0.7 1.2 1.4 2.4 1.4 2.4l3-1.7c0 0-0.7-1.3-1.5-2.5-0.3-0.6-0.7-1.3-1-1.7-0.3-0.5-0.5-0.8-0.5-0.8l-2.9 2c0 0 0.2 0.3 0.5 0.7 0.2 0.4 0.6 1 1 1.6z"/>
				<path id="&lt;Path&gt;" fill-rule="evenodd" class="s1" d="m387.1 141.8c0.9 1 1.7 2.1 1.7 2.1l2.8-2.1c0 0-0.8-1.2-1.8-2.3-0.5-0.5-0.9-1.1-1.3-1.5-0.3-0.4-0.6-0.7-0.6-0.7l-2.6 2.4c0 0 0.3 0.2 0.6 0.6 0.3 0.4 0.8 0.9 1.2 1.5z"/>
				<path id="&lt;Path&gt;" fill-rule="evenodd" class="s1" d="m380.3 134.7c1.1 0.9 2 1.9 2 1.9l2.5-2.5c0 0-1.1-1.1-2.2-2-0.5-0.5-1-1-1.4-1.3-0.5-0.4-0.8-0.6-0.8-0.6l-2.2 2.7c0 0 0.3 0.2 0.7 0.5 0.4 0.4 0.9 0.8 1.4 1.3z"/>
				<path id="&lt;Path&gt;" fill-rule="evenodd" class="s1" d="m402.2 175.7c0.1 0.5 0.2 1.2 0.2 1.9 0.1 1.3 0.1 2.7 0.1 2.7l3.5-0.1c0 0 0-1.5-0.1-2.9-0.1-1.5-0.4-2.9-0.4-2.9l-3.4 0.5c0 0 0.1 0.3 0.1 0.8z"/>
				<path id="&lt;Path&gt;" fill-rule="evenodd" class="s1" d="m400.1 166.1c0.2 0.5 0.4 1.2 0.5 1.8 0.2 0.7 0.4 1.4 0.5 1.9 0.1 0.5 0.2 0.8 0.2 0.8l3.4-0.7c0 0-0.1-0.4-0.2-0.9-0.1-0.6-0.3-1.3-0.5-2-0.2-0.7-0.4-1.4-0.5-1.9-0.1-0.5-0.3-0.8-0.3-0.8l-3.3 1c0 0 0.1 0.3 0.2 0.8z"/>
				<path id="&lt;Path&gt;" fill-rule="evenodd" class="s1" d="m396.7 156.9c0.2 0.5 0.5 1.1 0.7 1.7 0.3 0.7 0.6 1.3 0.8 1.8 0.1 0.5 0.3 0.8 0.3 0.8l3.2-1.3c0 0-0.1-0.3-0.3-0.8-0.2-0.5-0.5-1.2-0.8-1.8-0.2-0.7-0.5-1.4-0.8-1.9-0.2-0.5-0.3-0.8-0.3-0.8l-3.2 1.5c0 0 0.2 0.3 0.4 0.8z"/>
				<path id="&lt;Path&gt;" fill-rule="evenodd" class="s1" d="m395.8 201.9c0 0-0.9 0.9-1.9 1.6-0.5 0.3-1 0.6-1.4 0.9-0.4 0.2-0.7 0.3-0.7 0.3l1.5 3.2c0 0 0.4-0.2 0.9-0.5 0.5-0.3 1.1-0.6 1.8-1.1 1.2-0.9 2.3-2 2.3-2z"/>
				<path id="&lt;Path&gt;" fill-rule="evenodd" class="s1" d="m399.5 196.4c-0.6 1.2-1.3 2.3-1.3 2.3l3 1.8c0 0 0.8-1.2 1.4-2.6 0.7-1.3 1.1-2.7 1.1-2.7l-3.2-1.2c0 0-0.5 1.3-1 2.4z"/>
				<path id="&lt;Path&gt;" fill-rule="evenodd" class="s1" d="m402.1 187.3c-0.2 1.3-0.5 2.7-0.5 2.7l3.4 0.7c0 0 0.3-1.4 0.5-2.9 0.3-1.4 0.4-2.9 0.4-2.9l-3.5-0.3c0 0-0.1 1.4-0.3 2.7z"/>
				<path id="&lt;Path&gt;" fill-rule="evenodd" class="s1" d="m369.6 199.4c0.3 0.5 0.5 0.9 0.5 0.9l3-1.8c0 0-0.1-0.2-0.3-0.6-0.2-0.5-0.5-1-0.7-1.6-0.4-1.1-0.6-2.3-0.6-2.3l-3.5 0.5c0 0 0.3 1.6 0.8 3 0.2 0.7 0.6 1.4 0.8 1.9z"/>
				<path id="&lt;Path&gt;" fill-rule="evenodd" class="s1" d="m373.7 204.8c0.5 0.3 1 0.8 1.7 1.3 1.2 0.9 2.6 1.5 2.6 1.5l1.5-3.1c0 0-1.1-0.5-2.1-1.3-0.5-0.3-1-0.8-1.3-1-0.4-0.4-0.6-0.6-0.6-0.6l-2.4 2.5c0 0 0.2 0.3 0.6 0.7z"/>
				<path id="&lt;Path&gt;" fill-rule="evenodd" class="s1" d="m387.3 205.9c-0.5 0.1-1.1 0.1-1.7 0.1h-0.1-0.1 0.1c-0.3 0-0.1 0-0.1 0h-0.2q-0.3 0-0.5 0c-0.3-0.1-0.7-0.1-0.9-0.1-0.4-0.1-0.7-0.1-0.7-0.1l-0.6 3.4c0 0 0.4 0.1 1 0.2 0.6 0 1.2 0.1 2.1 0.1 1.5 0 3-0.2 3-0.2l-0.5-3.5c0 0-0.3 0.1-0.8 0.1z"/>
				<path id="&lt;Path&gt;" fill-rule="evenodd" class="s1" d="m387.2 173.8c0 0-0.3 0-0.9 0-0.5 0.1-1.3 0.1-2 0.2-1.5 0.2-2.9 0.5-2.9 0.5l0.8 3.4c0 0 1.2-0.3 2.5-0.4 0.7-0.1 1.4-0.1 1.8-0.2 0.5 0 0.9 0 0.9 0z"/>
				<path id="&lt;Path&gt;" fill-rule="evenodd" class="s1" d="m376 176.5c-0.5 0.2-1.2 0.7-1.8 1.1-0.7 0.4-1.2 1-1.6 1.4-0.5 0.3-0.7 0.7-0.7 0.6l2.5 2.4c0.1 0 0.2-0.2 0.6-0.5 0.3-0.3 0.7-0.7 1.2-1 0.5-0.4 1-0.7 1.5-0.9 0.4-0.2 0.6-0.4 0.6-0.4l-1.4-3.1c0 0-0.4 0.1-0.9 0.4z"/>
				<path id="&lt;Path&gt;" fill-rule="evenodd" class="s1" d="m367.9 189.7l3.5 0.1c0 0 0-0.3 0-0.7 0-0.5 0.2-1.1 0.3-1.7 0.1-0.6 0.4-1.1 0.5-1.6 0.1-0.4 0.2-0.7 0.2-0.7l-3.2-1.4c0 0-0.2 0.4-0.3 0.9-0.2 0.6-0.5 1.3-0.6 2.1-0.1 0.7-0.3 1.5-0.3 2-0.1 0.6-0.1 1-0.1 1z"/>
				<path id="&lt;Path&gt;" fill-rule="evenodd" class="s1" d="m417.2 181.6c0 0-0.3-0.2-0.8-0.4-0.4-0.3-1.1-0.7-1.7-1-1.3-0.7-2.7-1.3-2.7-1.3l-1.4 3.2c0 0 1.3 0.6 2.5 1.2 0.6 0.3 1.1 0.6 1.6 0.9 0.4 0.2 0.7 0.4 0.7 0.4z"/>
				<path id="&lt;Path&gt;" fill-rule="evenodd" class="s1" d="m392.9 173.9c-0.6 0-0.9-0.1-0.9-0.1l-0.3 3.5c0 0 0.4 0.1 0.9 0.1 0.5 0 1.2 0.1 1.8 0.2 1.4 0.1 2.7 0.4 2.7 0.4l0.6-3.4c0 0-1.4-0.3-2.8-0.5-0.8-0.1-1.5-0.1-2-0.2z"/>
				<path id="&lt;Path&gt;" fill-rule="evenodd" class="s1" d="m432.3 204.8c0.7 1.2 1.2 2.5 1.2 2.5l3.2-1.5c0 0-0.6-1.3-1.3-2.6-0.4-0.6-0.7-1.3-1-1.8-0.2-0.4-0.4-0.7-0.4-0.7l-3 1.7c0 0 0.2 0.3 0.4 0.8 0.2 0.4 0.6 1 0.9 1.6z"/>
				<path id="&lt;Path&gt;" fill-rule="evenodd" class="s1" d="m427.1 196.4c0.8 1.1 1.6 2.3 1.6 2.3l2.9-2c0 0-0.8-1.1-1.7-2.3-0.4-0.6-0.8-1.2-1.2-1.6-0.3-0.4-0.5-0.7-0.5-0.7l-2.8 2.1c0 0 0.2 0.3 0.6 0.7 0.3 0.4 0.7 0.9 1.1 1.5z"/>
				<path id="&lt;Path&gt;" fill-rule="evenodd" class="s1" d="m422.6 191l2.6-2.4c0 0-0.2-0.3-0.6-0.7-0.4-0.4-0.9-0.9-1.4-1.4-1.1-1-2.1-2-2.1-2l-2.3 2.6c0 0 1 0.9 1.9 1.9 0.5 0.4 1 0.9 1.4 1.3 0.3 0.4 0.5 0.7 0.5 0.7z"/>
				<path id="&lt;Path&gt;" fill-rule="evenodd" class="s1" d="m440.9 233.2c0.1 0.7 0.1 1.4 0.2 1.9 0 0.5 0.1 0.8 0.1 0.8l3.4-0.2c0 0 0-0.4 0-0.9-0.1-0.6-0.1-1.3-0.2-2-0.2-1.4-0.4-2.9-0.4-2.9l-3.4 0.5c0 0 0.1 1.4 0.3 2.8z"/>
				<path id="&lt;Path&gt;" fill-rule="evenodd" class="s1" d="m438.8 221.6c0.1 0.5 0.3 1.1 0.4 1.8 0.2 0.7 0.3 1.4 0.4 1.9 0.2 0.5 0.2 0.8 0.2 0.8l3.4-0.7c0 0 0-0.3-0.1-0.9-0.2-0.5-0.3-1.2-0.5-1.9-0.2-0.7-0.3-1.4-0.4-1.9-0.2-0.5-0.3-0.9-0.3-0.9l-3.4 0.9c0 0 0.1 0.4 0.3 0.9z"/>
				<path id="&lt;Path&gt;" fill-rule="evenodd" class="s1" d="m436.4 213.9c0.4 1.3 0.9 2.7 0.9 2.7l3.3-1.1c0 0-0.5-1.4-1-2.8-0.5-1.3-1-2.7-1-2.7l-3.3 1.4c0 0 0.6 1.2 1.1 2.5z"/>
				<path id="&lt;Path&gt;" fill-rule="evenodd" class="s1" d="m437.6 265.4l3.3 1c0.1 0 1.5-5.6 1.5-5.6l-3.4-0.8c0 0-1.3 5.4-1.4 5.4z"/>
				<path id="&lt;Path&gt;" fill-rule="evenodd" class="s1" d="m444.1 251.6c0.1-0.6 0.1-0.9 0.1-0.9l-3.4-0.5c0 0-0.1 0.4-0.1 0.9 0 0.5-0.2 1.2-0.3 1.9-0.2 1.4-0.5 2.7-0.5 2.7l3.5 0.7c0 0 0.2-1.5 0.5-2.9 0.1-0.7 0.2-1.4 0.2-1.9z"/>
				<path id="&lt;Path&gt;" fill-rule="evenodd" class="s1" d="m441.3 243.1c0 0.7 0 1.4 0 1.9 0 0.6-0.1 0.9-0.1 0.9l3.5 0.2c0 0 0-0.3 0.1-0.9 0-0.5 0-1.2 0-2 0.1-1.4 0-2.9 0-2.9l-3.5 0.1c0 0 0.1 1.4 0 2.7z"/>
				<path id="&lt;Path&gt;" fill-rule="evenodd" class="s1" d="m424.7 292.4l2.9 1.9 3.1-4.9-3.1-1.7z"/>
				<path id="&lt;Path&gt;" fill-rule="evenodd" class="s1" d="m431.1 281.3c-0.3 0.7-0.6 1.3-0.9 1.7-0.2 0.5-0.4 0.8-0.4 0.8l3.1 1.6c0 0 0.1-0.3 0.4-0.7 0.3-0.5 0.6-1.1 0.9-1.8 0.6-1.3 1.3-2.6 1.3-2.6l-3.2-1.5c0 0-0.6 1.3-1.2 2.5z"/>
				<path id="&lt;Path&gt;" fill-rule="evenodd" class="s1" d="m435.9 270.5c-0.2 0.4-0.5 1.1-0.7 1.7-0.6 1.3-1.1 2.6-1.1 2.6l3.2 1.4c0 0 0.6-1.4 1.1-2.7 0.3-0.7 0.5-1.3 0.7-1.8 0.2-0.5 0.3-0.9 0.3-0.9l-3.2-1.2c0 0-0.1 0.4-0.3 0.9z"/>
				<path id="&lt;Path&gt;" fill-rule="evenodd" class="s1" d="m408.7 312.2c-0.3 0.3-0.8 0.9-1.3 1.3-1 1-2 2-2 2l2.4 2.5c0 0 1-1 2.1-2 0.5-0.5 1-1 1.3-1.4 0.4-0.4 0.7-0.7 0.7-0.7l-2.6-2.4c0 0-0.2 0.3-0.6 0.7z"/>
				<path id="&lt;Path&gt;" fill-rule="evenodd" class="s1" d="m412.4 308.3l2.6 2.3 3.7-4.3-2.7-2.3z"/>
				<path id="&lt;Path&gt;" fill-rule="evenodd" class="s1" d="m420.5 298.4c-0.9 1.1-1.7 2.2-1.7 2.2l2.7 2.1c0 0 0.9-1.1 1.8-2.2 0.8-1.2 1.7-2.4 1.7-2.4l-2.9-2c0 0-0.8 1.1-1.6 2.3z"/>
				<path id="&lt;Path&gt;" fill-rule="evenodd" class="s1" d="m381.8 334.5l2 2.8 4.6-3.3-2-2.8z"/>
				<path id="&lt;Path&gt;" fill-rule="evenodd" class="s1" d="m392.2 326.8c-1.1 0.9-2.2 1.7-2.2 1.7l2.1 2.8c0 0 1.1-0.8 2.3-1.7 1.1-0.8 2.2-1.8 2.2-1.8l-2.1-2.7c0 0-1.1 0.9-2.3 1.7z"/>
				<path id="&lt;Path&gt;" fill-rule="evenodd" class="s1" d="m400 320.5c-0.5 0.4-1.1 0.9-1.4 1.2-0.5 0.4-0.7 0.6-0.7 0.6l2.2 2.7c0 0 0.3-0.3 0.7-0.6 0.4-0.4 1-0.8 1.5-1.3 1.1-1 2.1-1.9 2.1-1.9l-2.3-2.6c0 0-1.1 0.9-2.1 1.9z"/>
				<path id="&lt;Path&gt;" fill-rule="evenodd" class="s1" d="m357 352.5l2 2.9 4.6-3.3-2-2.9z"/>
				<path id="&lt;Path&gt;" fill-rule="evenodd" class="s1" d="m365.3 346.6l2 2.8 4.6-3.3-2-2.8z"/>
				<path id="&lt;Path&gt;" fill-rule="evenodd" class="s1" d="m373.5 340.6l2 2.8 4.6-3.3-2-2.9z"/>
			</g>
			<g id="&lt;Group&gt;">
				<g id="&lt;Group&gt;">
					<path id="&lt;Path&gt;" class="s8" d="m275.4 76.3c-0.5 0-1 0.4-1 1v3.6c0 0.6 0.5 1 1 1 0.6 0 1.1-0.4 1.1-1v-3.6c0-0.6-0.5-1-1.1-1z"/>
					<path id="&lt;Path&gt;" class="s8" d="m275.4 87.4c-0.5 0-1 0.4-1 1v3.6c0 0.6 0.5 1 1 1 0.6 0 1.1-0.4 1.1-1v-3.6c0-0.6-0.5-1-1.1-1z"/>
					<path id="&lt;Path&gt;" class="s8" d="m283.8 84.6c0-0.5-0.4-1-1-1h-3.6c-0.6 0-1 0.5-1 1 0 0.6 0.4 1.1 1 1.1h3.6c0.6 0 1-0.5 1-1.1z"/>
					<path id="&lt;Path&gt;" class="s8" d="m272.7 84.6c0-0.5-0.4-1-1-1h-3.6c-0.6 0-1 0.5-1 1 0 0.6 0.4 1.1 1 1.1h3.6c0.6 0 1-0.5 1-1.1z"/>
				</g>
			</g>
			<g id="&lt;Group&gt;">
				<g id="&lt;Group&gt;">
					<path id="&lt;Path&gt;" class="s14" d="m76.7 228.2c-0.6 0-1 0.4-1 1v3.6c0 0.6 0.4 1 1 1 0.6 0 1-0.4 1-1v-3.6c0-0.6-0.4-1-1-1z"/>
					<path id="&lt;Path&gt;" class="s14" d="m76.7 239.3c-0.6 0-1 0.4-1 1v3.6c0 0.6 0.4 1 1 1 0.6 0 1-0.4 1-1v-3.6c0-0.6-0.4-1-1-1z"/>
					<path id="&lt;Path&gt;" class="s14" d="m85.1 236.5c0-0.5-0.5-1-1-1h-3.7c-0.5 0-1 0.5-1 1 0 0.6 0.5 1 1 1h3.7c0.5 0 1-0.4 1-1z"/>
					<path id="&lt;Path&gt;" class="s14" d="m74 236.5c0-0.5-0.5-1-1-1h-3.7c-0.5 0-1 0.5-1 1 0 0.6 0.5 1 1 1h3.7c0.5 0 1-0.4 1-1z"/>
				</g>
			</g>
			<g id="&lt;Group&gt;">
				<g id="&lt;Group&gt;">
					<path id="&lt;Path&gt;" class="s15" d="m317.3 124.3c-0.4-0.4-1.1-0.4-1.5 0l-2.5 2.5c-0.4 0.4-0.4 1.1 0 1.5 0.4 0.4 1 0.4 1.4 0l2.6-2.6c0.4-0.4 0.4-1 0-1.4z"/>
					<path id="&lt;Path&gt;" class="s15" d="m309.4 132.1c-0.4-0.4-1-0.4-1.4 0l-2.6 2.6c-0.4 0.4-0.4 1 0 1.4 0.4 0.4 1.1 0.4 1.5 0l2.5-2.6c0.4-0.4 0.4-1 0-1.4z"/>
					<path id="&lt;Path&gt;" class="s15" d="m317.3 136.1c0.4-0.4 0.4-1 0-1.4l-2.6-2.6c-0.4-0.4-1-0.4-1.4 0-0.4 0.4-0.4 1 0 1.4l2.5 2.6c0.4 0.4 1.1 0.4 1.5 0z"/>
					<path id="&lt;Path&gt;" class="s15" d="m309.4 128.3c0.4-0.4 0.4-1.1 0-1.5l-2.5-2.5c-0.4-0.4-1.1-0.4-1.5 0-0.4 0.4-0.4 1 0 1.4l2.6 2.6c0.4 0.4 1 0.4 1.4 0z"/>
				</g>
			</g>
			<g id="&lt;Group&gt;">
				<g id="&lt;Group&gt;">
					<path id="&lt;Path&gt;" class="s10" d="m443.9 160.1c-0.4-0.4-1-0.4-1.4 0l-2.6 2.6c-0.4 0.4-0.4 1 0 1.4 0.4 0.4 1 0.4 1.4 0l2.6-2.5c0.4-0.4 0.4-1.1 0-1.5z"/>
					<path id="&lt;Path&gt;" class="s10" d="m436 168c-0.4-0.4-1-0.4-1.4 0l-2.6 2.6c-0.4 0.4-0.4 1 0 1.4 0.4 0.4 1.1 0.4 1.5 0l2.5-2.6c0.4-0.4 0.4-1 0-1.4z"/>
					<path id="&lt;Path&gt;" class="s10" d="m443.9 172c0.4-0.4 0.4-1 0-1.4l-2.6-2.6c-0.4-0.4-1-0.4-1.4 0-0.4 0.4-0.4 1 0 1.4l2.6 2.6c0.4 0.4 1 0.4 1.4 0z"/>
					<path id="&lt;Path&gt;" class="s10" d="m436 164.1c0.4-0.4 0.4-1 0-1.4l-2.5-2.6c-0.4-0.4-1.1-0.4-1.5 0-0.4 0.4-0.4 1.1 0 1.5l2.6 2.5c0.4 0.4 1 0.4 1.4 0z"/>
				</g>
			</g>
			<g id="&lt;Group&gt;">
				<g id="&lt;Group&gt;">
					<path id="&lt;Path&gt;" class="s8" d="m76.4 169.7c-0.4-0.4-1-0.4-1.4 0l-2.6 2.6c-0.4 0.4-0.4 1 0 1.4 0.4 0.4 1 0.4 1.4 0l2.6-2.6c0.4-0.4 0.4-1 0-1.4z"/>
					<path id="&lt;Path&gt;" class="s8" d="m68.6 177.6c-0.4-0.4-1.1-0.4-1.5 0l-2.5 2.5c-0.4 0.4-0.4 1.1 0 1.5 0.4 0.4 1 0.4 1.4 0l2.6-2.6c0.4-0.4 0.4-1.1 0-1.4z"/>
					<path id="&lt;Path&gt;" class="s8" d="m76.4 181.6c0.4-0.4 0.4-1.1 0-1.5l-2.6-2.5c-0.4-0.4-1-0.4-1.4 0-0.4 0.3-0.4 1 0 1.4l2.6 2.6c0.4 0.4 1 0.4 1.4 0z"/>
					<path id="&lt;Path&gt;" class="s8" d="m68.6 173.7c0.4-0.4 0.4-1 0-1.4l-2.6-2.6c-0.4-0.4-1-0.4-1.4 0-0.4 0.4-0.4 1 0 1.4l2.5 2.6c0.4 0.4 1.1 0.4 1.5 0z"/>
				</g>
			</g>
			<g id="&lt;Group&gt;">
				<path id="&lt;Compound Path&gt;" class="s14" d="m345.8 74.1c-3 0-5.5-2.5-5.5-5.6 0-3 2.5-5.5 5.5-5.5 3.1 0 5.6 2.5 5.6 5.5 0 3.1-2.5 5.6-5.6 5.6zm0-9.2c-2 0-3.6 1.7-3.6 3.6 0 2 1.6 3.7 3.6 3.7 2 0 3.6-1.7 3.6-3.7 0-1.9-1.6-3.6-3.6-3.6z"/>
			</g>
			<g id="&lt;Group&gt;">
				<path id="&lt;Compound Path&gt;" class="s10" d="m316.7 175.5c-3.1 0-5.5-2.5-5.5-5.5 0-3.1 2.4-5.6 5.5-5.6 3.1 0 5.6 2.5 5.6 5.6 0 3-2.5 5.5-5.6 5.5zm0-9.1c-2 0-3.6 1.6-3.6 3.6 0 2 1.6 3.6 3.6 3.6 2 0 3.6-1.6 3.6-3.6 0-2-1.6-3.6-3.6-3.6z"/>
			</g>
			<g id="&lt;Group&gt;">
				<path id="&lt;Compound Path&gt;" class="s15" d="m100.1 135.1c-3 0-5.5-2.5-5.5-5.5 0-3.1 2.5-5.6 5.5-5.6 3.1 0 5.6 2.5 5.6 5.6 0 3-2.5 5.5-5.6 5.5zm0-9.2c-2 0-3.6 1.7-3.6 3.7 0 2 1.6 3.6 3.6 3.6 2 0 3.6-1.6 3.6-3.6 0-2-1.6-3.7-3.6-3.7z"/>
			</g>
		</g>
		<g id="&lt;Group&gt;">
			<g id="&lt;Group&gt;">
				<g id="&lt;Group&gt;">
					<path id="&lt;Path&gt;" class="s17" d="m272.4 426q0.1 0.1 0 0.2l-1.5 0.9q-0.1 0-0.3 0c-0.6-0.1-1.4-0.3-2-0.4l-7.3-1q-0.7-0.1-1.3-0.2c-0.2-0.1-0.2 0-0.1 0.1q0 0 0 0c0.7 0.3 1.2 0.6 1.9 1l4.9 2.8q0.1 0 0 0.1l-1.2 0.7q-0.2 0.1-0.3 0l-8.7-5q-0.1-0.1 0-0.2l1.5-0.9q0.1 0 0.3 0c0.6 0.1 1.4 0.3 2 0.4l7.3 1q0.7 0.1 1.3 0.2c0.2 0.1 0.3 0 0.1-0.1q0 0 0 0c-0.7-0.3-1.2-0.6-1.9-1l-4.8-2.8q-0.2-0.1 0-0.1l1.1-0.7q0.2-0.1 0.3 0z"/>
				</g>
				<g id="&lt;Group&gt;">
					<path id="&lt;Compound Path&gt;" class="s17" d="m277.5 418c2.8 1.7 3.1 3.6 0.7 5-2.4 1.4-5.7 1.2-8.5-0.5-2.9-1.6-3.2-3.5-0.7-4.9 2.4-1.4 5.6-1.2 8.5 0.4zm-6.3 3.7c2 1.2 4.2 1.4 5.7 0.5 1.5-0.9 1.1-2.1-0.9-3.3-2.1-1.2-4.2-1.4-5.7-0.5-1.5 0.9-1.2 2.1 0.9 3.3z"/>
				</g>
				<g id="&lt;Group&gt;">
					<path id="&lt;Path&gt;" class="s17" d="m282.1 411.4q0.2 0.1 0.1 0.2l-2.8 1.6 7.6 4.4q0.1 0 0 0.1l-1.2 0.7q-0.1 0.1-0.3 0l-7.5-4.4-2.7 1.6q-0.2 0.1-0.3 0l-1-0.6q-0.2-0.1 0-0.1l6.8-4q0.2-0.1 0.3 0z"/>
				</g>
				<g id="&lt;Group&gt;">
					<path id="&lt;Path&gt;" class="s17" d="m264.5 393.6l15.1 10.9-3.5 2-10-4.6 8 5.7-3.6 2.1-18.8-8.6 2.6-1.5 14.7 6.9-12-8.5 2.5-1.5 14.8 7-12.1-8.5z"/>
				</g>
				<g id="&lt;Group&gt;">
					<path id="&lt;Path&gt;" class="s17" d="m267.6 411.4l-7.2 4.2-16.9-9.7 7.2-4.2 2.4 1.4-4.5 2.6 4.7 2.7 3.6-2.1 2.4 1.4-3.6 2.1 4.9 2.9 4.6-2.7z"/>
				</g>
				<g id="&lt;Group&gt;">
					<path id="&lt;Path&gt;" class="s17" d="m258.5 416.7l-2.7 1.6-15.5-5.2 12.2 7.1-2.4 1.4-16.9-9.8 3.4-1.9 12.8 4.3-10.1-5.9 2.3-1.3z"/>
				</g>
				<g id="&lt;Group&gt;">
					<path id="&lt;Path&gt;" class="s17" d="m349.4 381.3q0.1 0.1 0 0.1l-1.5 0.9q-0.1 0.1-0.3 0.1c-0.6-0.2-1.4-0.3-2-0.4l-7.3-1q-0.7-0.2-1.3-0.3c-0.2 0-0.3 0.1-0.1 0.1q0 0 0 0.1c0.6 0.2 1.2 0.5 1.9 0.9l4.9 2.8q0.1 0.1 0 0.2l-1.2 0.7q-0.2 0-0.3 0l-8.7-5.1q-0.2 0 0-0.1l1.5-0.9q0.1-0.1 0.3-0.1c0.6 0.2 1.4 0.3 2 0.4l7.3 1q0.7 0.2 1.3 0.3c0.2 0 0.3 0 0.1-0.1q0 0 0 0c-0.7-0.3-1.2-0.6-1.9-1l-4.9-2.8q-0.1-0.1 0-0.2l1.2-0.7q0.1 0 0.3 0z"/>
				</g>
				<g id="&lt;Group&gt;">
					<path id="&lt;Compound Path&gt;" class="s17" d="m332.1 374l-3.5-1.5-3.3 1.8 2.6 2.1-2.4 1.4-14.2-11.3 3.9-2.3 19.5 8.2zm-8.7-1.1l2.6-1.5-9.9-4.2z"/>
				</g>
				<g id="&lt;Group&gt;">
					<path id="&lt;Path&gt;" class="s17" d="m352.5 362.1l-7.2 4.2-16.9-9.8 7.2-4.2 2.4 1.4-4.5 2.7 4.7 2.7 3.6-2.1 2.4 1.4-3.6 2.1 4.9 2.8 4.6-2.6z"/>
				</g>
				<g id="&lt;Group&gt;">
					<path id="&lt;Path&gt;" class="s17" d="m339.6 364.9c2.7 1.6 2.9 3.2 0.3 4.8-2.6 1.5-5.5 1.3-8.2-0.2l-8.8-5.1c-2.7-1.5-2.9-3.2-0.3-4.7 2.6-1.5 5.5-1.4 8.2 0.1l1.6 1-2.5 1.4-1.8-1c-1.2-0.7-2.2-0.7-3-0.2-0.9 0.5-0.9 1.1 0.3 1.8l9.1 5.3c1.2 0.6 2.2 0.6 3 0.1 0.8-0.5 0.9-1-0.3-1.7l-3.1-1.8-1.2 0.7-2.4-1.4 3.7-2.2z"/>
				</g>
				<g id="&lt;Group&gt;">
					<path id="&lt;Compound Path&gt;" class="s17" d="m336.2 383.9c2.9 1.6 3.2 3.5 0.8 4.9-2.5 1.4-5.7 1.3-8.6-0.4-2.8-1.6-3.1-3.5-0.7-4.9 2.4-1.4 5.7-1.3 8.5 0.4zm-6.3 3.7c2.1 1.1 4.2 1.3 5.7 0.5 1.5-0.9 1.2-2.2-0.9-3.3-2.1-1.2-4.2-1.4-5.7-0.6-1.5 0.9-1.2 2.2 0.9 3.4z"/>
				</g>
				<g id="&lt;Group&gt;">
					<path id="&lt;Path&gt;" class="s17" d="m320.6 375.9c2.7 1.6 2.9 3.2 0.3 4.8-2.5 1.5-5.4 1.3-8.1-0.2l-1.1-0.6 2.5-1.5 1.2 0.7c1.2 0.7 2.2 0.7 3 0.2 0.9-0.5 1-1.1-0.2-1.8-3.5-2-9.3 0.7-14.1-2.1-2.8-1.6-3-3.2-0.4-4.7 2.6-1.5 5.4-1.4 8.1 0.2l0.6 0.3-2.5 1.4-0.7-0.4c-1.2-0.7-2.2-0.7-3-0.2-0.9 0.5-0.9 1 0.3 1.7 3.5 2 9.3-0.6 14.1 2.2z"/>
				</g>
				<g id="&lt;Group&gt;">
					<path id="&lt;Path&gt;" class="s17" d="m311.7 381.1c2.7 1.6 2.9 3.3 0.3 4.8-2.6 1.5-5.5 1.4-8.2-0.2l-1-0.6 2.5-1.5 1.2 0.7c1.2 0.7 2.1 0.7 3 0.2 0.8-0.5 0.9-1-0.3-1.7-3.5-2-9.3 0.6-14.1-2.2-2.7-1.6-2.9-3.2-0.4-4.7 2.6-1.5 5.4-1.4 8.2 0.2l0.5 0.3-2.5 1.4-0.7-0.4c-1.2-0.7-2.2-0.7-3-0.2-0.8 0.5-0.9 1.1 0.4 1.8 3.4 2 9.2-0.7 14.1 2.1z"/>
				</g>
				<g id="&lt;Group&gt;">
					<path id="&lt;Path&gt;" class="s17" d="m306.6 388.8l-7.2 4.1-16.9-9.7 7.2-4.2 2.5 1.4-4.6 2.6 4.7 2.8 3.6-2.1 2.4 1.3-3.6 2.1 5 2.9 4.5-2.6z"/>
				</g>
				<g id="&lt;Group&gt;">
					<path id="&lt;Path&gt;" class="s17" d="m292.8 414.2q0.1 0.1 0 0.1l-1.2 0.7q-0.1 0.1-0.3 0l-8.7-5q-0.1-0.1 0-0.2l1.2-0.6q0.1-0.1 0.3 0z"/>
				</g>
				<g id="&lt;Group&gt;">
					<path id="&lt;Path&gt;" class="s17" d="m292.1 404.5q0 0 0 0l0.8 0.7q0.1 0.1-0.1 0.2l-4.2 2.4 2.8 1.6 3.7-2.1q0.1 0 0.3 0l1 0.6q0.1 0.1 0 0.2l-3.7 2.1 3.5 2q0.1 0.1 0 0.2l-1.2 0.6q-0.1 0.1-0.3 0l-8.7-5q-0.1-0.1 0-0.2l5.8-3.3q0.2-0.1 0.3 0z"/>
				</g>
				<g id="&lt;Group&gt;">
					<path id="&lt;Path&gt;" class="s17" d="m311.6 402.8q0.1 0.1 0 0.2l-0.4 0.4c-0.4 0.5-0.8 0.9-1.5 1.3-2.5 1.4-5.7 1.2-8.6-0.4-2.8-1.7-3.1-3.5-0.7-5 0.7-0.4 1.3-0.6 2.2-0.9l0.7-0.2q0.2 0 0.3 0 0 0 0 0.1l0.7 0.7q0 0.1-0.1 0.2l-0.8 0.2c-0.6 0.2-1 0.4-1.7 0.7-1.5 0.9-1.2 2.1 0.9 3.3 2.1 1.2 4.2 1.4 5.7 0.5 0.6-0.3 0.9-0.6 1.3-1l0.3-0.4q0.1-0.1 0.3-0.1l1.3 0.4q0.1 0 0.1 0z"/>
				</g>
				<g id="&lt;Group&gt;">
					<path id="&lt;Path&gt;" class="s17" d="m297.5 394l-2.5 1.5-12.1-7 10.3 8.1-2.5 1.4-13.9-5.7 11.9 6.8-2.3 1.4-16.9-9.8 3.7-2.1 14 5.8-10.3-8 3.7-2.1z"/>
				</g>
				<g id="&lt;Group&gt;">
					<path id="&lt;Path&gt;" class="s17" d="m303.8 407.8q0.2 0 0 0.1l-1.1 0.7q-0.2 0.1-0.3 0l-8.7-5q-0.2-0.1 0-0.2l1.1-0.7q0.2-0.1 0.3 0z"/>
				</g>
				<g id="&lt;Group&gt;">
					<path id="&lt;Compound Path&gt;" class="s17" d="m319.9 398.4l-2.2-0.5-4 2.3 1 1.3q0 0.1-0.1 0.1l-1.2 0.8q-0.1 0-0.2 0-0.1 0-0.1-0.1l-3.4-4.5c-0.7-0.8-1.3-1.6-2.1-2.3q-0.1-0.1 0-0.2l1.6-0.9q0.1-0.1 0.3 0 1.9 0.6 4 1.1l7.9 2q0 0 0.1 0.1 0.1 0-0.1 0.1l-1.2 0.7q-0.1 0.1-0.3 0zm-7 0.8l3-1.8-2.4-0.6c-1.1-0.3-2.3-0.6-3.1-0.9-0.2-0.1-0.3 0-0.2 0.1 0.5 0.4 1.2 1.1 1.7 1.8z"/>
				</g>
				<g id="&lt;Group&gt;">
					<path id="&lt;Path&gt;" class="s17" d="m331.2 391.9q0.1 0.1 0 0.1l-1.2 0.7q-0.1 0.1-0.3 0l-8.7-5q-0.1-0.1 0-0.2l1.2-0.7q0.1 0 0.2 0z"/>
				</g>
				<g id="&lt;Group&gt;">
					<path id="&lt;Path&gt;" class="s17" d="m320.5 389.1q0.2 0.1 0 0.2l-2.7 1.6 7.6 4.3q0.1 0.1 0 0.2l-1.2 0.7q-0.2 0.1-0.3 0l-7.5-4.4-2.8 1.6q-0.1 0.1-0.2 0l-1.1-0.6q-0.1-0.1 0-0.1l6.9-4q0.2-0.1 0.3 0z"/>
				</g>
			</g>
		</g>
	</g>
</svg>