<svg version="1.2" xmlns="http://www.w3.org/2000/svg" viewBox="0 0 1700 1270" width="1700" height="1270">
	<title>3132830_37153</title>
	<style>
		.s0 { fill: #272525 } 
		.s1 { fill: #514943 } 
		.s2 { fill: #d7dddd } 
		.s3 { fill: #c5cccc } 
		.s4 { fill: #000000 } 
		.s5 { fill: #363636 } 
		.s6 { fill: #2e4661 } 
		.s7 { fill: #ffffff } 
		.s8 { fill: #e7caad } 
		.s9 { fill: #3a3029 } 
		.s10 { fill: #273140 } 
		.s11 { fill: #647380 } 
		.s12 { fill: #e8cbae } 
		.s13 { fill: #c1d6e0 } 
		.s14 { fill: #899195 } 
		.s15 { fill: #58646c } 
		.s16 { fill: #f1f8ff } 
		.s17 { fill: #cce1e8 } 
		.s18 { fill: #6ba98c } 
	</style>
	<g id="background">
		<g>
		</g>
	</g>
	<g id="shadow">
		<g style="opacity: .06">
			<path class="s0" d="m1496 1032.1q-2.6-1.2-5.6-2c-7.6-2.1-18.9 0.1-26.7 0.1q-52.9 0.3-105.7 0.6-176.8 0.9-353.5 1.9-207.4 1.2-414.9 2.3-161.4 0.9-322.8 1.8-44.6 0.2-89.3 0.5c0 0 82.5 127.1 232.9 141.2 114.6 10.8 231.9 6.4 346.8 6.7 172.1 0.5 344.3-0.4 516.4-1.7q63.9-0.5 127.9-1c23.4-0.2 93.5 10.5 110.6-6.6 4.3-4.4 6.7-10.4 8.5-16.4 9.6-30.8 11.2-110.2-24.6-127.4z"/>
		</g>
	</g>
	<g id="object">
		<g>
			<g>
				<path class="s1" d="m466.7 1096l0.4 11.7-7.2 21-14.3-3.1 1.5-32.4 2.8-4.9z"/>
			</g>
			<g>
				<path class="s2" d="m1461.6 1034.5c0 14.5-11.8 26.3-26.4 26.3h-89.3v-341.4h89.3c14.6 0 26.4 11.8 26.4 26.3z"/>
			</g>
			<g>
				<path class="s3" d="m1347.2 1060.8h-1058.4v-462.6c0-19 15.4-34.4 34.4-34.4h989.6c19 0 34.4 15.4 34.4 34.4z"/>
			</g>
			<g style="opacity: .09">
				<path class="s4" d="m1347.2 941.7l-1041.6 34c-9.8 0.4-18-7.3-18-16.9v-69.2l1058.3 27.3z"/>
			</g>
			<g>
				<path class="s2" d="m1351.1 929.3h-1034.4c-19.6 0-35.5-15.9-35.5-35.5v-14.3c0-19.6 15.9-35.5 35.5-35.5h1034.4c19.6 0 35.5 15.9 35.5 35.5v14.3c0 19.6-15.9 35.5-35.5 35.5z"/>
			</g>
			<g>
				<path class="s2" d="m288.7 1060.3h-84.4c-17.2 0-31.2-14-31.2-31.2v-279c0-17.2 14-31.2 31.2-31.2h84.4z"/>
			</g>
			<g style="opacity: .04">
				<path class="s4" d="m287.6 844l63.5-41c0 0 951.7-13.3 957.3-9.1 5.7 4.1 38.8 48.1 38.8 48.1 0 0-1045 2.3-1059.6 2z"/>
			</g>
			<g>
				<g>
					<g>
						<path class="s5" d="m826.5 1106l-6.8 10.4 7.3 39.2 13.6 8.9 13.8-8.3-1.4-31-12.7-27.4z"/>
					</g>
					<g>
						<path class="s5" d="m885.4 1113.4l-2.1 12.2 22.2 33.2 16 2.8 9.4-13.1-13.5-28-22.5-20.2z"/>
					</g>
					<g>
						<path class="s6" d="m718.6 802.7c8.6 11.4 23.8 14.9 37.9 16.9 15.7 2.2 31.6 3.5 47.4 3.9 11.3 0.2 22.6-0.1 33.7-2.4 17.5-3.7 33.4-12.5 50.2-18.7 14.8-5.5 30.4-9 46.2-10.4 4.4-0.4 9.1-0.7 12.9-3.1 8.3-5.2 8.2-17.1 7.1-26.9-1.5-13.9-3.7-29-13.8-38.6-7.1-6.8-17-9.7-26.7-11.8-45.6-9.7-93.9-6.1-137.8 9.7-17.7 6.3-45.5 15.5-57.9 30.6-10.1 12.4-8.4 38.6 0.8 50.8z"/>
					</g>
					<g>
						<path class="s6" d="m718.6 798.5c-1.7 4.5-2 10.2-2.1 18.7l53.1 39.4 48 265 36.8-0.3 20.6-253.6c-3.7-21.2-4.3-46.1-11.5-66.3-8.5-23.9-47.6-34.3-70.9-34.7-20.3-0.5-40.5 5.3-57.7 16-9.5 5.8-14 9.9-16.3 15.8z"/>
					</g>
					<g>
						<path class="s6" d="m943.7 767.2c2.3 4.4 4.3 9.1 7.1 13.4 6.2 9.8 12.4 19.5 18.3 29.7q12.3 21.6 24.2 43.5l-74.7 272.2-35.6-2.3c0 0 8-265.3 8-265.3 0.2-6.9-15-16-19.5-19.5-11.5-9.1-17-13.8-23.4-27.2-5.1-10.5-5.9-23-2-34 3.8-11 12.4-20.3 23.1-24.8 8.3-3.5 17.6-4 26.6-4.6 13-0.8 27.2-1.2 37.8 6.4 4.7 3.4 7.6 7.8 10.1 12.5z"/>
					</g>
				</g>
				<g>
					<path class="s6" d="m683.9 771.1c-0.6 19.2-0.2 44.9 7.8 45.9 1.6 0.2 3-0.5 4.3-1.1 14.1-6.9 24.1-16.5 37.9-23.1 14.5-7 31-10.6 47.1-13.1 24-3.8 48.4-6.1 72.6-6.3 20.8-0.2 45.9-0.8 65.5 4.4 15 5.4 29.6 10.9 44.2 16.8-4.4-71.5-14.5-144.5-30.6-218.3-6.2-28.8-6.1-57.3-27.1-79.3-18.8-19.7-12.5-45-67.6-44.6-97.7 0.7-68.5-6.4-110.5 71.8-9.5 17.6-21.3 65.5-24.9 84.4-4.2 22.8-8.1 45.5-11.2 68.1-3.4 25-5.9 50-6.6 74.8 0 2.8-0.6 10.5-0.9 19.6z"/>
				</g>
				<g>
					<path class="s7" d="m789.9 459l53.5 0.3c0 0 37.7 153.7 39.5 180.2 1.7 26 8.1 127.6 8.1 127.6 0 0-52.4-9.5-107.7 1.5-54.9 11-51.2 14.2-51.2 14.2 0 0 29.6-110.8 30.6-142.6 1-32.6 25.3-113.2 25.3-113.2z"/>
				</g>
				<g>
					<path class="s8" d="m824.3 459.5q-0.8 0.6-1.7 0.9c-1.3 0.5-2.7 0.3-4 0.1q-8.1-0.9-16.3-1.9c1.8-16.6-7.9-20.3-17.3-31-9.6-10.8-6.7-25.4-6.1-38.7 0.1-3.7 0.3-7.5 1.9-10.8 2.7-5.9 9.1-9.1 15.3-11 15.7-4.9 33.8-3.7 47.7 5.2 3.7 2.4 7.1 5.4 9.2 9.3 3 6 2.3 13.3 1.4 20-1.3 10.3-4.4 20.5-10.2 29.2-5.5 8.1-15.9 12-17.1 21.8-0.3 2.5-1 5.3-2.8 6.9z"/>
				</g>
				<g>
					<path class="s9" d="m892.1 351.1c-0.1-5.1-2.2-9.6-6.9-12.6-4.1-2.7-8.8-4.9-11.3-9-2-3.3-2.3-7.3-4.2-10.6-3.4-5.9-11-7.6-17.5-9.6-16.4-5-25.2-10.8-42.5-4.4-12.4 4.6-28.3 5.2-39.8 11.8-4.7 2.8-8.8 7.3-12.1 12.2-11.6 17.2-14.4 41.4-6.9 59.4 1.7 4 3.9 7.7 6.2 11.2 4.5 7.1 9.4 15.8 17.6 19.3 0.5-3.4 3.1-5.2 3.9-8.5 0.6-2.4 0.4-4.8 0.2-7.3-0.4-9.4-3.5-24.3 6.4-29 12.5-5.9 36-0.6 48.1 4.4 10.6 4.5 28.7 10.2 40 5.5 10.6-4.4 19.2-22 18.8-32.8z"/>
				</g>
				<g>
					<path class="s6" d="m799.9 459.6h37.1l-14.5 21 20.9 212.9-25.7 27.9-17.8-33.1 4.9-207.7z"/>
				</g>
			</g>
			<g>
				<g>
					<path class="s10" d="m1212.7 1105.2l1.7 12.3-23.3 32.4-16.1 2.2-9-13.4 14.5-27.5 23.3-19.4z"/>
				</g>
				<g>
					<path class="s10" d="m1156.1 1109.1l2.1 12.2-22.1 33.2-16.1 2.8-9.4-13.1 13.5-28 22.5-20.2z"/>
				</g>
				<g>
					<path class="s10" d="m1322.9 798.4c-8.5 11.3-23.8 14.9-37.8 16.9-15.8 2.2-31.6 3.5-47.5 3.9-11.3 0.2-22.6-0.1-33.6-2.4-17.5-3.7-33.5-12.5-50.3-18.7-14.8-5.5-30.4-9-46.1-10.4-4.5-0.4-9.2-0.7-12.9-3.1-8.3-5.2-8.2-17.1-7.2-26.9 1.6-13.9 3.7-29 13.8-38.6 7.1-6.8 17.1-9.7 26.7-11.8 45.7-9.7 93.9-6.1 137.9 9.6 17.6 6.4 45.4 15.6 57.8 30.7 10.2 12.4 8.4 38.6-0.8 50.8z"/>
				</g>
				<g>
					<path class="s10" d="m1313.1 790.3c1.8 4.5 2.1 10.2 2.2 18.7l-53.1 39.4-48 265-36.8-0.3-20.6-253.6c3.7-21.2 4.3-46.1 11.4-66.3 8.5-23.9 47.7-34.3 71-34.7 20.3-0.5 40.5 5.3 57.7 15.9 9.5 5.9 14 10 16.2 15.9z"/>
				</g>
				<g>
					<path class="s10" d="m1097.8 762.9c-2.3 4.4-4.3 9-7 13.4-6.3 9.8-12.5 19.4-18.3 29.7q-12.4 21.6-24.2 43.5l74.6 272.2 35.6-2.3c0 0-8-265.3-8-265.4-0.2-6.8 15-15.9 19.5-19.4 11.5-9.1 17-13.8 23.5-27.2 5-10.5 5.8-23 2-34-3.9-11-12.4-20.3-23.2-24.8-8.3-3.5-17.5-4.1-26.5-4.6-13.1-0.8-27.3-1.2-37.9 6.4-4.7 3.4-7.6 7.8-10.1 12.5z"/>
				</g>
			</g>
			<g>
				<path class="s11" d="m460.1 472.5q-0.7 0.1-1.3 0.3c-19.9 5-42.4 33-49.5 52.3-22 59.7-25.7 97.1-33.9 149.5-4.4 28.3-16.5 55.8-28.2 81.9-3.3 7.3-1.3 14.7-1.8 22.3-0.6 7.9 1.3 16 2.9 23.8 0.3 2.1 13.3-3.3 14.4-3.7 20.4-6.5 40.9-12.5 61.7-17.3 13.8-3.2 27.7-5.8 41.7-7.7 41.4-5.6 68.8 7.7 108.2 20.9-1.3-90.3 3.7-163.3-11.5-252-1.8-10.6-1.8-17.8-7.7-29.2-5.7-11-9.6-18.7-18.7-26.4-3.2-2.6-6.3-5.3-9.9-7.2-18.8-10.4-45.5-12.5-66.4-7.5z"/>
			</g>
			<g>
				<g>
					<path class="s12" d="m660.7 514.4l17.8-22.2-9.2-8.1-15.5 12.6-2.6-5.8-13 20.9 8.5 9.6z"/>
				</g>
				<g>
					<path class="s11" d="m536.4 487.2l45.7 70 52.3-50.1 15.7 20-84.8 116.6-63.9-100.3z"/>
				</g>
			</g>
			<g>
				<path class="s11" d="m459.3 472.8l-89.7 49.4-25.3-68.8-25.4 1.5-5.7 134.2 15.1 20.5 92.8-39z"/>
			</g>
			<g>
				<g>
					<g>
						<path class="s1" d="m524.6 426.3c4.3 12.6-1.9 26-7.3 37.4-2.3 4.7-5.8 11.2-2 16 4.3 5.3 13.6 3.3 17.3-1.4 2.7-3.2 3.7-7.4 4.6-11.5 4.1-18.2 9.7-43.8 6.6-62.2-2.5-14.8-22.4-39.7-39.6-28.5-3.1 2-4.9 5.4-6.5 8.8-0.9 2-1.7 4.1-1.8 6.3-0.1 8.7 8.1 10.2 13.7 14.3 7 5.1 12.3 12.8 15 20.8z"/>
					</g>
					<g>
						<path class="s8" d="m498.5 475.3c11.9-2.7 21.2-12.4 25.7-23.6 4.5-11.1 4.7-23.4 3.5-35.3-4.1-39.5-54.6-36.9-71.7-6.6-14.8 26.3 7.8 73.5 42.5 65.5z"/>
					</g>
					<g>
						<path class="s1" d="m459.8 428.2c-2.5 9.2-2.9 20.4-2.4 27.1 0.5 7.7 4.3 28.6-10.1 25.3-12-2.8-22-30.2-25.9-40-9.2-23.8-11.6-48.8 2.7-70.7 5.5-8.6 13.3-16.2 23-19.8 14.6-5.4 40-7.5 54.9-1.3 16.2 6.9 24.8 27.4 14.6 42.3-11 16.1-36.4 12-50.2 24.4-3 2.8-5.1 7.4-6.6 12.7z"/>
					</g>
				</g>
				<g>
					<path class="s8" d="m499.1 471.2q-0.5 4.5-1 9c-0.2 1.4 0.2 5.2-0.8 6.2-0.5 0.6-1.4 0.6-2.2 0.6-2.2-0.1-21.9-0.9-21.8-2.2 0.3-3.5 0.6-7 1.4-10.4 0.6-2.7 0.5-7.8 1.8-10 3.6 2.1 7.1 3.2 11.1 4q5.8 1.1 11.6 2.1 0 0.3-0.1 0.7z"/>
				</g>
			</g>
			<g>
				<g>
					<path class="s8" d="m1053 442.3l-11.2-11.7 0.6-14.3-2.9-1.6-2.2 3.5-2.9-12-8-6-12.7 4-7.8 11.4 5.4 12.2 12.7 9.3 14.5 16.8z"/>
				</g>
				<g>
					<path class="s10" d="m1046.3 431l61.9 68.6c15.8-5 30.5-8.2 46.7-10.9 15.7-2.6 33.3-15.4 49.5-11.8 36.6 8-35.4 57.7-44.3 64q-26.8 18.9-53.6 37.9l-14.7-10.3-73.6-123.1z"/>
				</g>
			</g>
			<g>
				<path class="s10" d="m1330.5 762c0.4 18.9-0.2 44.3-7.4 45.2-1.4 0.2-2.7-0.5-3.9-1.1-12.5-6.9-21.4-16.5-33.7-23.1-12.9-6.9-27.7-10.6-42.3-13.2-21.7-3.9-43.8-6.4-66-6.8-17.4-0.3-34.8 1.2-52.1 2.6-14.4 1.2-27.8 5.5-42.5 4.5-15.1-1.1-29.9-5.7-42.7-13.6-0.5-0.3-1-0.6-1.2-1.1-0.2-0.6 0-1.2 0.2-1.8 3.1-8.4 5.3-16.7 10.9-23.7 6.2-7.8 10.6-17.7 15.1-26.5 9.4-18.5 18.3-37.9 24.8-57.5 5.4-14.7 10.7-29.5 15.2-44.4 2.1-6.8 3.9-13.7 6-20.6 2-6.8 5.8-15.7 5.8-22.8 0-28.7 25.7-50.3 42.4-71.2 5.1-6.3 10.4-12.9 17.9-15.9 5.1-2 10.8-2.2 16.3-2.4q25.1-0.7 50.3-1.4c6.1-0.2 12.4-0.3 18 2.2 8.3 3.8 13.1 12.5 17.2 20.7 18.5 36.7 30.2 76.2 36.8 116.9 3.5 21.3 6.7 42.6 9.2 64 2.7 23.9 4.6 47.9 5 71.9 0.1 2.7 0.5 10.2 0.7 19.1z"/>
			</g>
			<g>
				<path class="s13" d="m1208.7 555.2c-4.5 9.8-7.1 16.5 0.6 24.6 7.5 7.7 10.5 8.2 13.6 19.8 5.3 19.4 10.2 39.6 12.5 59.6 1.5 13.2-0.9 25.8 0.8 39.2 0.6 4.9 5.9 61.9 9.3 62q-39-0.4-77.9-0.7-19.5-0.2-39-0.3c-8-0.1-15.2 2-15.8-7.1-0.5-7.8 8.8-21.9 11.2-29.7 6.6-20.7 11.2-42.6 23.7-60.8 6.5-9.5 14.9-17.7 20.3-27.9 10.6-19.9 8-43.9 8-66.4 0.1-20.8 2.7-41.5 7.8-61.7 3.6-14.2 5.8-33 23-35.9 12.8-2.3 27.4-4.2 40.3-2.3 4.4 16.1-9.8 35-17.8 47.4-5.4 8.5-10.1 17.5-14.1 26.7-1.4 3.1-4.1 8.2-6.5 13.5z"/>
			</g>
			<g>
				<g>
					<path class="s8" d="m1210.4 478q14-0.6 28-1.2c0.5-7.4 0.4-14.9-0.3-22.3 7.9-2.3 17.1-5.9 18.9-13.9 0.5-2.5 0.2-5.1-0.1-7.7q-1.8-15.9-3.7-31.8c-0.4-3.7-0.9-7.5-2.7-10.7-3.1-5.6-9.7-8.4-16.1-9.9-16.1-3.7-34-1.2-47.2 8.8-3.5 2.7-6.8 5.9-8.5 10-2.6 6.2-1.3 13.3 0.1 20q1.9 9.2 3.7 18.4c1.5 7.1 3.7 15.1 10.2 18.1 3.5 1.6 7.7 1.4 10.9 3.7 5.4 3.9 4.2 12.3 6.8 18.5z"/>
				</g>
				<g>
					<path class="s9" d="m1158.8 343.2c2-0.4 4.2-0.8 6.3-1.8 6.8-2.9 11.5-8.8 18.7-11.6 14.5-5.5 32.7-4.7 46.9 1.3 13.6 5.7 32.2 7.9 44.5 15.6 5 3.2 9 8 12 13.3 10.3 18.1 9.1 42.2-3.1 59.2-2.8 3.8-6 7.2-9.4 10.5-6.9 6.7-15.3 15.1-24.4 17.2 0.2-8.1 9-33.1 3.1-40.1-7.7-9.2-22.9-9-33.8-8-12.9 1.2-23.6-2.9-36.6-2.3-6.5 0.3-14 1.7-19-2.6-5.9-4.9-18.2-20.4-21.2-27.3-2.5-6-0.8-13.3 3.6-18.1 3.9-4.1 8-4.6 12.4-5.3z"/>
				</g>
			</g>
			<g>
				<g>
					<path class="s12" d="m428.3 815l17.3 160.3 2.5 119.4 18.8 5.5 15.4-108.7 33.4-198.6z"/>
				</g>
			</g>
			<g>
				<g>
					<path class="s1" d="m536.3 1098.5l5.1 11.2 1.3 23.6-15.4 2.7-11.6-32.4 0.8-5.8z"/>
				</g>
				<g>
					<g>
						<path class="s12" d="m559.4 777.7l9.3 130.4-32.6 193.1h-18.9l6.3-178.8-38-154.2z"/>
					</g>
				</g>
			</g>
			<g>
				<path class="s14" d="m587.1 801.5c-3.1-8.2-7.4-16.4-13.2-24.7-20.3-29.4-53.1-36.9-84.9-38.6-14.7-0.7-28.8-5.8-43.4-4.5-18.7 1.6-37 9.2-54.7 15.4-16.1 5.6-41.2 14.7-38.7 38.4 4.1 37.5 37.5 50.9 46.9 83.3 1.9 6.6 2.2 13.6 2.4 20.5 0.8 19.1 1 38.3 2.4 57.3 9.3 1.7 18.5-3.2 28-3.7 15.5-0.7 32.1 3.3 47.6 4.6q48.8 4.3 97.8 5.6 6.3-37.4 12.6-74.9c5-29.9 6.4-54.4-2.8-78.7z"/>
			</g>
			<g>
				<g>
					<path class="s8" d="m964.6 441l3.3-12.8-6.1-10 1.4-2.4 3 1.7c-4.6-2.6-1.5-18.2-0.5-21.5 0.4-1.2 0.9-2.4 1.8-3.3 1.1-1 2.8-1.3 4.3-1.4q5.4-0.6 10.9-0.4c0.8 0.1 1.7 0.2 2.4 0.7 1 0.7 1.1 2.1 1.2 3.3 0.8 11.2 1.7 20.7-3 30.9l-3.8 17.8z"/>
				</g>
				<g>
					<path class="s6" d="m959.6 427.3l-15.6 78.7-86.3-52.1 30.6 96.9 80.7 31.2 11.9-4.9 8.8-139.4z"/>
				</g>
			</g>
			<g>
				<path class="s6" d="m1209 484.5l18.6 3.9-4.9 13.7-7.8 8.8c0 0-19.5 53.6-22.4 79.9-3 26.3 0 60.4 0 60.4l-1 23.4c0 0-11.7-15.6-14.6-18.5-3-2.9-2-75.1 3.9-102.4 5.8-27.2 24.9-50.9 24.9-50.9 0 0 2.4-11.4 3.3-18.3z"/>
			</g>
			<g>
				<g>
					<path class="s8" d="m1162.5 669.3l-15.8 8.3-15-4.9-2.6 2.6 3.1 3.4-13.6-0.5-8.7 6.7 0.5 14.7 9.7 11.6 14.5-2 13.7-10.7 22.1-10.5z"/>
				</g>
				<g>
					<path class="s10" d="m1148.5 673l91.3-45.2c-0.7-18.3 0.3-34.8 2.3-52.8 1.9-17.5-6.4-39.9 2.2-56.1 19.5-36.4 50.7 54.8 54.7 66.2q12.1 34 24.2 68.1l-15.3 12.6-152.6 41.3z"/>
				</g>
			</g>
			<g>
				<path class="s14" d="m533.2 540.9c-0.9-34.8-29.2-53.9-29.2-53.9l-39-2.6-27.3 46.9 52.4 63.4c-8.9 72.4-30.8 139.4-30.8 139.4l23.5 3.6c3.7-16.9 8.7-112.1 10.2-141.2z"/>
			</g>
			<g>
				<path class="s12" d="m318.6 447.7l-0.5-27.8 12.1-0.9 4.7 19 5.6-3-2.5 23.8-12.6 2.6z"/>
			</g>
			<g>
				<g>
					<g>
						<g>
							<path class="s15" d="m297.4 496.5l-8.5-4.4c-3.1-1.7-4.4-5.6-2.7-8.8l85.9-165.6c1.6-3.1 5.6-4.4 8.8-2.7l8.4 4.4c3.2 1.6 4.4 5.5 2.8 8.7l-86 165.6c-1.6 3.2-5.5 4.4-8.7 2.8z"/>
						</g>
						<g style="opacity: .25">
							<path class="s4" d="m354.9 350.9l6.1 37.2 16.7-32.2-18.5-12.1z"/>
						</g>
						<g>
							<path class="s16" d="m488.4 332.2c-40.5 40.5-105.9 40.5-146.4 0-40.4-40.4-40.4-105.9 0-146.3 40.5-40.5 105.9-40.5 146.4 0 40.5 40.4 40.5 105.9 0 146.3z"/>
						</g>
						<g>
							<g>
								<path class="s17" d="m364.9 356.1c-53.5-27.8-74.4-93.9-46.7-147.4 27.8-53.5 93.9-74.4 147.4-46.6 53.4 27.7 74.4 93.8 46.6 147.3-27.7 53.5-93.8 74.4-147.3 46.7zm95.3-183.8c-47.8-24.8-106.9-6.1-131.7 41.7-24.9 47.9-6.1 107 41.7 131.8 47.8 24.8 106.9 6.1 131.8-41.7 24.8-47.9 6.1-107-41.8-131.8z"/>
							</g>
						</g>
					</g>
				</g>
				<g>
					<g style="opacity: .25">
						<path class="s4" d="m489.9 254.1l-124.4 34.2-5.6-11.1 8.8 20.7 125-35.5z"/>
					</g>
					<g>
						<path class="s18" d="m347 251.5l24.2-2.8 7.6 24.4 102.7-34.1 13.5 20.8-125.9 35.8z"/>
					</g>
				</g>
			</g>
			<g>
				<g>
					<g>
						<g>
							<path class="s15" d="m749 847.8l-8.4-4.4c-3.2-1.7-4.4-5.6-2.7-8.8l86.9-165c1.7-3.2 5.6-4.4 8.8-2.8l8.4 4.5c3.2 1.6 4.4 5.6 2.7 8.8l-86.9 165c-1.7 3.2-5.6 4.4-8.8 2.7z"/>
						</g>
						<g style="opacity: .25">
							<path class="s4" d="m807.4 702.6l5.9 37.2 16.9-32.1-18.4-12.1z"/>
						</g>
						<g>
							<path class="s16" d="m941.5 684.3c-40.5 40.5-105.9 40.5-146.4 0-40.4-40.4-40.4-105.9 0-146.3 40.5-40.5 105.9-40.5 146.4 0 40.5 40.4 40.5 105.9 0 146.3z"/>
						</g>
						<g>
							<g>
								<path class="s17" d="m817.4 707.8c-53.3-28.1-73.8-94.3-45.7-147.6 28-53.3 94.3-73.8 147.6-45.7 53.3 28.1 73.8 94.3 45.7 147.6-28.1 53.3-94.3 73.8-147.6 45.7zm96.5-183.1c-47.7-25.1-106.9-6.8-132 40.9-25.2 47.7-6.8 106.9 40.9 132 47.6 25.1 106.9 6.8 132-40.9 25.1-47.7 6.8-106.9-40.9-132z"/>
							</g>
						</g>
					</g>
				</g>
				<g>
					<g style="opacity: .25">
						<path class="s4" d="m943 606.6l-124.6 33.5-5.5-11.1 8.6 20.7 125.2-34.7z"/>
					</g>
					<g>
						<path class="s18" d="m800.1 603.1l24.2-2.6 7.5 24.5 102.9-33.5 13.4 20.9-126.1 35z"/>
					</g>
				</g>
			</g>
			<g>
				<g>
					<g>
						<g>
							<path class="s15" d="m1023.9 489.3l-9.5-0.7c-3.6-0.3-6.3-3.4-6-7l14.6-186c0.3-3.6 3.4-6.3 7-6l9.5 0.8c3.6 0.2 6.3 3.4 6 7l-14.6 185.9c-0.3 3.6-3.4 6.3-7 6z"/>
						</g>
						<g style="opacity: .25">
							<path class="s4" d="m1020.1 332.8l20.1 31.9 2.8-36.2-21.6-3.9z"/>
						</g>
						<g>
							<path class="s16" d="m1113.1 297.9c-40.5 40.5-105.9 40.5-146.4 0-40.5-40.4-40.5-105.9 0-146.3 40.5-40.5 105.9-40.5 146.4 0 40.4 40.4 40.4 105.9 0 146.3z"/>
						</g>
						<g>
							<g>
								<path class="s17" d="m1031.3 333.7c-60-4.7-105.1-57.4-100.4-117.5 4.8-60.1 57.5-105.1 117.5-100.4 60.1 4.7 105.1 57.4 100.4 117.5-4.7 60.1-57.4 105.1-117.5 100.4zm16.2-206.4c-53.7-4.2-100.8 36.1-105 89.8-4.3 53.7 36 100.9 89.7 105.1 53.8 4.2 100.9-36.1 105.1-89.8 4.2-53.7-36-100.9-89.8-105.1z"/>
							</g>
						</g>
					</g>
				</g>
				<g>
					<g style="opacity: .25">
						<path class="s4" d="m1106.7 191.1l-101.2 80-9.5-8.1 16.1 15.6 101.3-81.3z"/>
					</g>
					<g>
						<path class="s18" d="m974.1 244.4l21.2-12 16.5 19.5 81.2-71.5 20.7 13.9-102 82.1z"/>
					</g>
				</g>
			</g>
			<g>
				<path class="s8" d="m340.8 433.8c-1.8-1.2-4-1.7-6.1-1.5-0.2 0-0.5 0.1-0.7 0.2-0.2 0.2-0.3 0.5-0.4 0.8q-1.2 3.5-2.4 6.9 4.4 0.6 8.6 1.9c0.6-2.5 0.9-5.2 0.9-7.8z"/>
			</g>
			<g>
				<g>
					<path class="s8" d="m767.3 737.8l6.3 11.7 11.3 3.2 0.5 2.7-3.3 0.8c5.2-1.2 13.4 12.4 14.9 15.5 0.5 1.2 1 2.4 0.9 3.6-0.1 1.5-1.2 2.8-2.2 4q-3.6 4.1-7.8 7.6c-0.6 0.5-1.3 1.1-2.2 1.2-1.2 0.1-2.3-0.8-3.2-1.7-8.1-7.7-15.1-14.1-18.6-24.7l-9.3-15.7z"/>
				</g>
				<g>
					<path class="s6" d="m781 741l-39-103 19-59-9.2-103.2-76.8 131.2-2 27 80.7 130.7z"/>
				</g>
			</g>
		</g>
	</g>
</svg>